<svg xmlns="http://www.w3.org/2000/svg" xmlns:xlink="http://www.w3.org/1999/xlink" viewBox="0 0 1066 447">
    <defs>
      <path id="a" d="M.1 1H446v446H.1z"/>
    </defs>
    <g fill="none" fill-rule="evenodd">
      <mask id="b" fill="#3d5d66">
        <use xlink:href="#a"/>
      </mask>
      <path d="M326 189.2a11 11 0 1 0-22.2 0 11 11 0 0 0 22.2 0" fill="#3d5d66"/>
      <path d="M355.2 245.4a25.1 25.1 0 1 1 50.2 0 25.1 25.1 0 0 1-50.2 0ZM300 270.5l78-106.8H396l-78 106.8H300Zm-10.2-81.3a25.1 25.1 0 1 1 50.2.1 25.1 25.1 0 0 1-50.2 0ZM268 397.6h-87V128l-32.5-.3.3-43.6 42-37.4H268v350.8ZM445.9 217a217.5 217.5 0 0 0-.5-9l-.1-2-.3-3.5-.2-1.7c-.2-1.7-.3-3.4-.6-5v-.2a221 221 0 0 0-.7-5.1c0-.6-.2-1.2-.3-1.7l-.5-3.5-.4-2a222.4 222.4 0 0 0-1.7-8.4l-.4-1.7-1-4.4-.3-.8-1.2-4.6-.5-1.8a213.6 213.6 0 0 0-4.2-12.9l-.7-1.9a221.9 221.9 0 0 0-3.6-9.1l-.9-2a221.9 221.9 0 0 0-5.4-11.7l-1-2-1.4-2.7-1.8-3.2-1.4-2.6-1.3-2.2-1.2-2a212.8 212.8 0 0 0-4-6.5L409 101l-1.5-2.3-1-1.6a220 220 0 0 0-3.5-4.8l-.9-1.2-1.8-2.4-1.1-1.4a235.8 235.8 0 0 0-5-6.2l-1-1.2-2.1-2.5-.6-.6c-2.6-3-5.3-5.8-8-8.7l-.9-.8a240.8 240.8 0 0 0-5.8-5.8l-.9-.7a225 225 0 0 0-12.5-11c-.2 0-.4-.2-.5-.3l-3-2.4-.8-.5-3-2.3-.5-.4a224 224 0 0 0-14.5-9.7 212.2 212.2 0 0 0-7.7-4.6h-.2a221.4 221.4 0 0 0-19.9-10l-.3-.1-4-1.7a221 221 0 0 0-21.4-7.6h-.2l-4-1.2h-.3a223.2 223.2 0 0 0-150.6 11.6l-1.2.5a212.3 212.3 0 0 0-8.5 4.1l-1.3.7-2.9 1.5-1.5.9-3.8 2-1.2.8c-1 .5-2 1-2.8 1.6l-1.5 1-3.6 2.2-1.3.8-2.7 1.8-1.4 1-3.5 2.3-1.3 1-2.5 1.8-1.4 1a226 226 0 0 0-3.3 2.6l-1.4 1-2.3 2-1.4 1.1-3.2 2.7-1.3 1.2L74 58l-1.4 1.2-3 2.8-1.3 1.3-2 2-1.4 1.3-2.8 2.9-1.4 1.4-1.8 2-1.3 1.5-2.7 3-1.3 1.5-1.7 2-1.5 1.8a223.5 223.5 0 0 0-16 22l-1.2 2a229.8 229.8 0 0 0-7.2 12.6l-1 2-1.2 2.2-.9 1.9a224 224 0 0 0-1.8 3.7l-.8 1.8-1.1 2.4-.8 1.7a218 218 0 0 0-3.4 8.3l-.6 1.6-1.6 4.4-.6 1.6-.9 2.7-.4 1.4-1.5 4.7-.5 1.5-.8 2.8-.3 1.3a225 225 0 0 0-2.3 9.4l-.2.9a223 223 0 0 0-1.2 5.6l-.3 1.4-.5 3v.2a220.8 220.8 0 0 0-1.6 10.8 223 223 0 0 0 111.9 221.6l1.1.7 4.1 2.2 1.6.8 2.5 1.3 1.5.8 5.2 2.4.6.3a200.2 200.2 0 0 0 13.4 5.6l.7.3 10.4 3.6a223.5 223.5 0 0 0 224.4-53.2 230.2 230.2 0 0 0 8.5-8.7 223.8 223.8 0 0 0 11.5-13.7l.5-.5 3.3-4.4.4-.6 3.2-4.5.3-.5 3.2-4.7 3-4.6 2.7-4.6v-.1c1-1.5 1.8-3 2.6-4.6l.2-.2 2.4-4.5.2-.3 2.2-4.5.2-.4 2.1-4.5.3-.5 2-4.4.2-.6a217 217 0 0 0 1.8-4.4l.3-.7 1.7-4.3.3-.9 1.5-4.2.4-1 1.3-4.2.4-1 1.2-4.2.4-1.2 1.1-4 .4-1.4 1-4 .3-1.4.9-3.9.3-1.6.7-3.8.4-1.7.6-3.8.3-1.8.5-3.7.3-1.9.4-3.6.2-2 .4-3.7.2-2 .2-3.7.1-2 .2-4v-1.8a227.9 227.9 0 0 0 0-11.1V217Z" fill="#3d5d66"/>
      <path d="M391.3 245.4a11 11 0 1 0-22.1 0 11 11 0 0 0 22.1 0M513.7 179.7h43.4v-21.2h-43.4v-15.6h48v-22.3h-73.5v91.9h25.5v-32.8M597 166.3c0-13.3 9.2-24.6 23.1-24.6 14 0 23.7 11.6 23.7 24.8v.3c0 13.3-9.3 24.5-23.4 24.5-14 0-23.5-11.5-23.5-24.8v-.2Zm23.1 48a48.1 48.1 0 0 0 49.7-47.8v-.2c0-26.4-21-47.5-49.4-47.5a48.1 48.1 0 0 0-49.6 47.7v.3c0 26.4 21 47.5 49.3 47.5ZM709.1 142.6h16.7c8.6 0 13.8 3.7 13.8 11v.2c0 6.7-5 10.9-13.6 10.9H709v-22Zm0 42h11.2l18.5 27.9h29.4l-21.9-32a29 29 0 0 0 19-28.3v-.2c0-9-2.9-16.2-8.2-21.4-6.2-6.3-16-10-30-10h-43.4v91.9H709v-27.8ZM825.7 212.5h25.5v-69.6h27.6v-22.3h-80.7v22.3h27.6v69.6M948.7 155H916v-34.4h-25.4v91.9H916v-34.9h32.7v34.9h25.5v-91.9h-25.5V155M1016.3 190.8v-14.6h44.2v-20h-44.2v-14h48.7v-21.6h-73.9v91.9h74.6v-21.7h-49.4M543.4 267c0 7.7-6 12.7-15.6 12.7h-13v-26h12.9c9.8 0 15.7 4.5 15.7 13v.2Zm-13.6-36.2h-42.2v98.4h27.3v-28h13.5c24.4 0 42.3-12.3 42.3-35.5v-.3c0-21.8-16-34.6-41-34.6ZM657.2 305.3h-47.7v-74.5h-27.3v98.4h75v-23.9M704.7 290.4l11.1-28 11 28h-22.1Zm-1.8-60.3-42 99.1h28.8l7-17.5h38l7.1 17.5h29.3l-42-99.1H703ZM846.6 282.8l-40.5-52h-25.5v98.4h27v-54l42.1 54h23.9v-98.4h-27v52M918 290.4h47.3v-21.5H918V254h52.2v-23.2H891v98.4h79.9V306H918v-15.6M979.3 254.7h29.6v74.5h27.3v-74.5h29.5v-23.9h-86.4v23.9M1051.3 320.2h-1.5v-2h1.5c.9 0 1.4.3 1.4 1 0 .6-.5 1-1.4 1Zm3.8-1.2c0-2-1.5-2.9-3.6-2.9h-4.1v8.6h2.4V322h1l1.8 2.6h2.7l-2-3c1-.4 1.8-1.3 1.8-2.7Z" fill="#3d5d66"/>
      <path d="M1058 320.5c0 4-3 7.3-7 7.3-4.2 0-7.2-3.3-7.2-7.2a7.2 7.2 0 1 1 14.3-.1Zm-7-8.6c-4.9 0-8.7 4-8.7 8.6 0 4.8 3.8 8.7 8.6 8.7s8.6-4 8.6-8.7c0-4.7-3.7-8.6-8.6-8.6ZM642.2 388.6h33.4V382h-33.4zM702.9 380.6l-6.8-11h-8.3v28.3h7.7v-16.2l7.3 11.1h.1l7.3-11.2v16.3h7.9v-28.3h-8.4l-6.8 11M731 386.8h13.7v-6.2H731v-4.3h15.1v-6.7h-23v28.3h23.2v-6.6H731v-4.5M765.5 380.6l-6.8-11h-8.4v28.3h7.8v-16.2l7.2 11.1h.2l7.3-11.2v16.3h7.9v-28.3h-8.4l-6.8 11M803.3 389c0 1.7-1.3 2.6-3.8 2.6h-6v-5.2h6c2.6 0 3.8 1 3.8 2.5v.1Zm-9.9-13.1h5.2c2.3 0 3.6.9 3.6 2.4v.1c0 1.7-1.4 2.5-3.8 2.5h-5v-5Zm12.2 7.2c2.5-1 4.4-3 4.4-6.3v-.1c0-2-.7-3.4-1.8-4.6-1.7-1.6-4.2-2.5-7.8-2.5h-14.7v28.3h14.7c6.9 0 10.9-3 10.9-7.8 0-4-2.3-5.9-5.7-7ZM822.7 386.8h13.7v-6.2h-13.7v-4.3h15.1v-6.7h-22.9v28.3H838v-6.6h-15.3v-4.5M859.4 379.8c0 2-1.5 3.4-4.2 3.4H850v-6.8h5.2c2.6 0 4.2 1.1 4.2 3.3v.1Zm8-.5c0-2.8-.9-5-2.5-6.7-2-1.9-5-3-9.3-3H842v28.3h7.9v-8.6h3.5l5.7 8.6h9.1l-6.8-9.8a9 9 0 0 0 5.9-8.8ZM877.7 388.6h33.4V382h-33.4z" fill="#3d5d66"/>
    </g>
  </svg>
