<?xml version="1.0" encoding="UTF-8"?>
<svg width="150px" height="43px" viewBox="0 0 150 43" version="1.1" xmlns="http://www.w3.org/2000/svg" xmlns:xlink="http://www.w3.org/1999/xlink">
    <!-- Generator: Sketch 61.2 (89653) - https://sketch.com -->
    <title>bbc</title>
    <desc>Created with Sketch.</desc>
    <defs>
        <polygon id="path-1" points="4.5e-05 0.14808 45.367995 0.14808 45.367995 42.9 4.5e-05 42.9"></polygon>
        <polygon id="path-3" points="0.08202 0.14805 45.44997 0.14805 45.44997 42.89994 0.08202 42.89994"></polygon>
        <polygon id="path-5" points="0.115965 0.14808 45.483915 0.14808 45.483915 42.9 0.115965 42.9"></polygon>
    </defs>
    <g id="🎨-Designs" stroke="none" stroke-width="1" fill="none" fill-rule="evenodd">
        <g id="Wholegrain-2019-day" transform="translate(-442.000000, -6864.000000)">
            <g id="bbc" transform="translate(442.000000, 6864.000000)">
                <path d="M28.95615,27.78018 C28.95615,27.78018 29.1249,23.71578 23.175,23.75568 L17.39355,23.75568 L17.39355,32.15013 L23.175,32.15013 C23.175,32.15013 28.95615,32.42583 28.95615,27.78018" id="Fill-1" fill="#000000"></path>
                <path d="M26.20107,14.600835 C26.20107,14.600835 26.37417,11.195085 21.79962,10.953435 L17.39352,10.953435 L17.39352,18.902235 L21.14322,18.902235 C21.14322,18.902235 26.20107,18.833235 26.20107,14.600835" id="Fill-3" fill="#000000"></path>
                <g id="Group-7" transform="translate(0.000000, 0.001950)">
                    <mask id="mask-2" fill="white">
                        <use xlink:href="#path-1"></use>
                    </mask>
                    <g id="Clip-6"></g>
                    <path d="M11.923395,6.16893 L22.699545,6.16893 C32.410695,7.06293 31.809345,14.39253 31.809345,14.39253 C31.844895,18.86493 27.887295,20.55108 27.887295,20.55108 C34.839045,22.30548 34.595895,28.22643 34.595895,28.22643 C34.595895,36.92703 24.275745,36.8962808 24.275745,36.8962808 L11.923395,36.8962808 L11.923395,6.16893 Z M4.5e-05,42.90003 L45.367995,42.90003 L45.367995,0.14808 L4.5e-05,0.14808 L4.5e-05,42.90003 Z" id="Fill-5" fill="#000000" mask="url(#mask-2)"></path>
                </g>
                <path d="M78.51738,14.600835 C78.51738,14.600835 78.68988,11.195085 74.11563,10.953435 L69.71043,10.953435 L69.71043,18.902235 L73.45923,18.902235 C73.45923,18.902235 78.51738,18.833235 78.51738,14.600835" id="Fill-8" fill="#000000"></path>
                <g id="Group-12" transform="translate(104.550000, 0.001950)">
                    <mask id="mask-4" fill="white">
                        <use xlink:href="#path-3"></use>
                    </mask>
                    <g id="Clip-11"></g>
                    <path d="M36.46992,34.45119 C36.46992,34.45119 27.14397,39.99204 16.34037,35.72439 C16.34037,35.72439 7.25862,32.40819 6.91272,21.52569 C6.91272,21.52569 6.53517,10.33269 18.64737,6.61719 C18.64737,6.61719 21.88167,5.37909 27.69417,5.92929 C27.69432,5.92929 31.16832,6.27294 36.19512,8.37189 L36.19512,14.04864 C36.19512,14.04864 30.65397,10.64334 24.53052,10.57479 C24.53052,10.57479 13.10637,10.35069 12.59157,21.52569 C12.59157,21.52569 12.17892,31.80264 24.39282,32.38809 C24.39282,32.38809 29.51757,33.00534 36.46992,28.57209 L36.46992,34.45119 Z M0.08202,42.89994 L45.44997,42.89994 L45.44997,0.14799 L0.08202,0.14799 L0.08202,42.89994 Z" id="Fill-10" fill="#000000" mask="url(#mask-4)"></path>
                </g>
                <g id="Group-15" transform="translate(52.200000, 0.001950)">
                    <mask id="mask-6" fill="white">
                        <use xlink:href="#path-5"></use>
                    </mask>
                    <g id="Clip-14"></g>
                    <path d="M12.039915,6.16893 L22.815465,6.16893 C32.526765,7.06293 31.924965,14.39253 31.924965,14.39253 C31.960215,18.86493 28.003065,20.55108 28.003065,20.55108 C34.955715,22.30548 34.711665,28.22643 34.711815,28.22643 C34.711815,36.92703 24.391515,36.8962808 24.391515,36.8962808 L12.039915,36.8962808 L12.039915,6.16893 Z M0.115965,42.90003 L45.483915,42.90003 L45.483915,0.14808 L0.115965,0.14808 L0.115965,42.90003 Z" id="Fill-13" fill="#000000" mask="url(#mask-6)"></path>
                </g>
                <path d="M81.27261,27.78018 C81.27261,27.78018 81.44091,23.71578 75.49146,23.75568 L69.71031,23.75568 L69.71031,32.15013 L75.49146,32.15013 C75.49146,32.15013 81.27261,32.42583 81.27261,27.78018" id="Fill-16" fill="#000000"></path>
            </g>
        </g>
    </g>
</svg>