<svg xmlns="http://www.w3.org/2000/svg" xmlns:xlink="http://www.w3.org/1999/xlink" viewBox="0 0 150 43">
    <defs>
      <path id="a" d="M0 .1h45.4v42.8H0z"/>
      <path id="c" d="M.1.1h45.3v42.8H.1z"/>
      <path id="e" d="M.1.1h45.4v42.8H.1z"/>
    </defs>
    <g fill="none" fill-rule="evenodd">
      <path d="M29 27.8s.1-4-5.8-4h-5.8v8.4h5.8s5.8.2 5.8-4.4M26.2 14.6s.2-3.4-4.4-3.6h-4.4v7.9H21s5.1 0 5.1-4.3" fill="#000"/>
      <g>
        <mask id="b" fill="#fff">
          <use xlink:href="#a"/>
        </mask>
        <path d="M12 6.2h10.7c9.7.9 9.1 8.2 9.1 8.2 0 4.5-4 6.2-4 6.2 7 1.7 6.8 7.6 6.8 7.6 0 8.7-10.3 8.7-10.3 8.7H11.9V6.2ZM0 42.9h45.4V.1H0V43Z" fill="#000" mask="url(#b)"/>
      </g>
      <path d="M78.5 14.6s.2-3.4-4.4-3.6h-4.4v7.9h3.8s5 0 5-4.3" fill="#000"/>
      <g transform="translate(104.5)">
        <mask id="d" fill="#fff">
          <use xlink:href="#c"/>
        </mask>
        <path d="M36.5 34.5S27 40 16.3 35.7c0 0-9-3.3-9.4-14.2 0 0-.4-11.2 11.7-14.9 0 0 3.3-1.2 9-.7 0 0 3.6.4 8.6 2.5V14s-5.5-3.4-11.7-3.4c0 0-11.4-.2-12 11 0 0-.3 10.2 11.9 10.8 0 0 5.1.6 12-3.8v5.9ZM0 42.9h45.3V.1H.1V43Z" fill="#000" mask="url(#d)"/>
      </g>
      <g transform="translate(52.2)">
        <mask id="f" fill="#fff">
          <use xlink:href="#e"/>
        </mask>
        <path d="M12 6.2h10.8c9.7.9 9.1 8.2 9.1 8.2 0 4.5-3.9 6.2-3.9 6.2 7 1.7 6.7 7.6 6.7 7.6 0 8.7-10.3 8.7-10.3 8.7H12V6.2ZM.1 42.9h45.4V.1H0V43Z" fill="#000" mask="url(#f)"/>
      </g>
      <path d="M81.3 27.8s.1-4-5.8-4h-5.8v8.4h5.8s5.8.2 5.8-4.4" fill="#000"/>
    </g>
  </svg>
