<svg xmlns="http://www.w3.org/2000/svg" xmlns:xlink="http://www.w3.org/1999/xlink" viewBox="0 0 97 164">
    <defs>
      <path id="a" d="M.16.255h96.533v96.529H.16z"/>
    </defs>
    <g fill="none" fill-rule="evenodd">
      <g transform="translate(0 27)">
        <mask id="b" fill="#fff">
          <use xlink:href="#a"/>
        </mask>
        <path d="M35.553 69.891h18.368c6.324 0 10.339-3.857 10.339-9.874 0-7.177-5.787-9.182-11.963-9.182H35.553v19.056Zm0-25.228h14.666c8.329 0 11.728-3.009 11.728-8.797 0-7.638-5.399-8.716-11.728-8.716H35.553v17.513Zm-7.326-23.686h19.981c4.864 0 11.267 0 14.584 2.006 3.627 2.16 6.479 6.095 6.479 11.497 0 5.863-3.082 10.26-8.176 12.342v.155c6.793 1.388 10.493 6.481 10.493 13.272 0 8.098-5.788 15.815-16.742 15.815H28.227V20.977Z" fill="#9cd1ae" mask="url(#b)"/>
        <path d="M48.422.255C21.77.255.16 21.864.16 48.52c0 26.654 21.61 48.264 48.262 48.264 26.661 0 48.272-21.61 48.272-48.264C96.694 21.864 75.083.255 48.422.255Zm41.907 48.288c0 23.143-18.758 41.903-41.907 41.903-23.139 0-41.898-18.76-41.898-41.903 0-23.139 18.759-41.896 41.898-41.896 23.149 0 41.907 18.757 41.907 41.896Z" fill="#9cd1ae" mask="url(#b)"/>
      </g>
      <path fill="#9cd1ae" d="M.26 140.297h96.333v-6.332H.26z"/>
      <g fill="#9cd1ae">
        <path d="M90.965 126.034c.155-.346.364-.64.625-.904.263-.259.573-.451.925-.602.349-.148.727-.215 1.112-.215.402 0 .773.067 1.128.215.344.151.647.343.905.602.26.264.476.558.625.904.159.351.231.732.231 1.141 0 .414-.072.793-.231 1.14-.149.356-.365.656-.625.916-.258.265-.561.46-.905.608-.355.143-.726.213-1.128.213-.385 0-.763-.07-1.112-.213-.352-.148-.662-.343-.925-.608-.261-.26-.47-.56-.625-.916-.16-.347-.224-.726-.224-1.14 0-.409.064-.79.224-1.141Zm.478 2.111c.112.304.278.566.495.787.209.219.462.392.755.519.284.124.603.181.934.181.339 0 .653-.057.935-.181.287-.127.537-.3.755-.519.206-.221.376-.483.493-.787.124-.296.185-.624.185-.97 0-.353-.061-.667-.185-.966-.117-.301-.287-.557-.493-.776a2.495 2.495 0 0 0-.755-.514c-.282-.121-.596-.188-.935-.188-.331 0-.65.067-.934.188-.293.127-.546.298-.755.514a2.154 2.154 0 0 0-.495.776c-.124.299-.183.613-.183.966 0 .346.059.674.183.97Zm2.368-2.645c.401 0 .693.08.887.235.193.165.293.402.293.725 0 .306-.09.522-.254.669-.175.139-.382.223-.639.251l.963 1.479h-.557l-.919-1.448h-.551v1.448h-.53V125.5h1.307Zm-.232 1.493c.12 0 .232-.006.337-.011.098-.005.199-.028.278-.064.086-.042.151-.096.198-.167.05-.078.069-.176.069-.313 0-.112-.019-.205-.064-.266-.042-.071-.101-.119-.17-.152-.07-.041-.144-.065-.236-.081-.09-.005-.175-.015-.266-.015h-.691v1.069h.545ZM11.935 6.033c-.23-.365-.513-.687-.855-.963-.342-.277-.727-.492-1.159-.647-.431-.154-.882-.231-1.354-.231-.862 0-1.594.166-2.196.5-.601.334-1.089.781-1.463 1.341-.374.561-.647 1.2-.818 1.916-.172.716-.256 1.456-.256 2.221 0 .731.084 1.443.256 2.133.171.692.444 1.315.818 1.868.374.552.862.995 1.463 1.329.602.333 1.334.5 2.196.5 1.172 0 2.087-.357 2.745-1.073.658-.716 1.061-1.659 1.207-2.83h3.709c-.098 1.089-.35 2.074-.756 2.951-.407.879-.944 1.628-1.61 2.245-.667.619-1.448 1.09-2.343 1.416-.895.324-1.878.487-2.952.487-1.334 0-2.533-.232-3.599-.695-1.064-.463-1.965-1.102-2.695-1.915-.732-.813-1.294-1.768-1.684-2.867-.391-1.097-.586-2.281-.586-3.549 0-1.302.195-2.51.586-3.624.39-1.115.952-2.086 1.684-2.915.73-.831 1.631-1.48 2.695-1.953C6.034 1.207 7.233.971 8.567.971c.96 0 1.867.139 2.72.414.854.277 1.619.68 2.293 1.209.675.528 1.233 1.183 1.671 1.964.441.78.717 1.675.83 2.683h-3.708c-.065-.439-.211-.841-.438-1.208"/>
      </g>
      <path d="M25.139 9.144c-.415-.454-1.047-.683-1.892-.683-.552 0-1.012.094-1.377.281-.367.187-.66.418-.879.695-.22.277-.374.57-.464.879-.089.309-.143.585-.158.829h5.636c-.163-.879-.452-1.546-.866-2.001Zm-3.916 6.637c.52.503 1.269.755 2.244.755.7 0 1.302-.175 1.806-.524.504-.349.812-.719.928-1.11h3.049c-.489 1.513-1.237 2.595-2.245 3.245-1.009.651-2.228.976-3.66.976-.992 0-1.887-.159-2.683-.475-.797-.318-1.472-.769-2.026-1.355-.553-.585-.98-1.285-1.281-2.098-.301-.813-.451-1.708-.451-2.684 0-.942.155-1.822.464-2.635.308-.813.749-1.516 1.317-2.11.57-.593 1.249-1.061 2.038-1.403.788-.342 1.662-.512 2.622-.512 1.073 0 2.009.207 2.806.622.797.415 1.452.971 1.964 1.671.512.7.882 1.497 1.11 2.391.226.895.309 1.83.243 2.806h-9.099c.048 1.122.332 1.936.854 2.44ZM34.324 6.193v2.342h.048c.163-.391.383-.753.66-1.086.276-.333.593-.618.951-.855.357-.234.74-.418 1.147-.548.406-.13.829-.195 1.269-.195.227 0 .478.041.757.122v3.22c-.164-.033-.359-.061-.587-.085a6.3128 6.3128 0 0 0-.659-.037c-.634 0-1.17.106-1.61.318-.439.21-.793.499-1.061.865-.268.366-.46.793-.574 1.281-.113.488-.17 1.017-.17 1.586v5.685H31.03V6.193h3.294M48.427 6.193v2.316h-2.539v6.246c0 .587.099.977.294 1.172.195.195.586.293 1.17.293.195 0 .383-.008.561-.025.179-.016.35-.04.514-.073v2.684c-.293.049-.62.081-.977.097-.357.017-.707.025-1.049.025-.536 0-1.046-.036-1.526-.11-.479-.073-.901-.215-1.267-.427-.366-.212-.656-.512-.867-.903-.212-.39-.316-.902-.316-1.536V8.509h-2.099V6.193h2.099V2.41h3.463v3.783h2.539M50.445 18.806h3.465V6.193h-3.465v12.613Zm0-14.566h3.465V1.385h-3.465V4.24ZM55.283 8.509V6.193h2.073v-.977c0-1.122.349-2.041 1.05-2.756.698-.716 1.756-1.075 3.171-1.075.308 0 .619.013.928.038.307.024.609.045.901.061V4.07c-.407-.049-.829-.074-1.268-.074-.472 0-.81.11-1.012.329-.203.22-.304.59-.304 1.111v.757h2.389v2.316h-2.389v10.297h-3.466V8.509h-2.073M65.56 18.806h3.465V6.193H65.56v12.613Zm0-14.566h3.465V1.385H65.56V4.24ZM78.405 9.144c-.414-.454-1.046-.683-1.891-.683-.554 0-1.012.094-1.378.281-.367.187-.659.418-.879.695-.22.277-.374.57-.464.879-.089.309-.141.585-.157.829h5.634c-.16-.879-.449-1.546-.865-2.001Zm-3.916 6.637c.521.503 1.27.755 2.244.755.7 0 1.302-.175 1.806-.524.504-.349.814-.719.927-1.11h3.049c-.486 1.513-1.235 2.595-2.242 3.245-1.012.651-2.23.976-3.661.976-.994 0-1.888-.159-2.684-.475-.797-.318-1.473-.769-2.025-1.355-.553-.585-.98-1.285-1.282-2.098-.299-.813-.451-1.708-.451-2.684 0-.942.156-1.822.464-2.635.31-.813.747-1.516 1.318-2.11.569-.593 1.248-1.061 2.037-1.403.789-.342 1.663-.512 2.623-.512 1.073 0 2.009.207 2.806.622.797.415 1.452.971 1.964 1.671.512.7.882 1.497 1.109 2.391.228.895.309 1.83.245 2.806h-9.1c.048 1.122.333 1.936.853 2.44ZM93.104 10.962c-.097-.48-.264-.903-.499-1.269-.236-.366-.541-.662-.915-.891-.374-.227-.846-.341-1.415-.341-.569 0-1.05.114-1.44.341-.39.229-.704.529-.94.904-.235.374-.405.801-.511 1.28-.107.481-.158.98-.158 1.501 0 .487.056.975.169 1.464.114.488.298.923.55 1.305.253.383.568.691.952.927.382.237.842.353 1.378.353.569 0 1.045-.112 1.427-.341.382-.228.688-.532.916-.915.226-.382.389-.817.486-1.305.098-.488.147-.992.147-1.512s-.049-1.021-.147-1.501Zm.147 6.233c-.407.684-.939 1.176-1.598 1.477-.658.3-1.402.451-2.232.451-.945 0-1.773-.182-2.488-.549-.716-.365-1.307-.861-1.77-1.488-.464-.625-.814-1.346-1.049-2.159-.236-.813-.353-1.659-.353-2.537 0-.846.117-1.663.353-2.452.235-.789.585-1.484 1.049-2.087.463-.6 1.045-1.085 1.745-1.451.699-.367 1.512-.549 2.44-.549.748 0 1.46.158 2.133.475.677.317 1.209.785 1.599 1.403h.049V1.385h3.464v17.421H93.3v-1.611h-.049ZM8.711 152.73c-.175-1.22-1.343-2.148-2.682-2.148-2.421 0-3.333 2.063-3.333 4.211 0 2.042.912 4.105 3.333 4.105 1.648 0 2.581-1.134 2.782-2.75h2.616c-.276 3.059-2.391 5.017-5.398 5.017-3.796 0-6.029-2.835-6.029-6.372 0-3.643 2.233-6.479 6.029-6.479 2.698 0 4.964 1.582 5.293 4.416H8.711M17.058 159.276c1.666 0 2.163-1.427 2.163-2.834 0-1.426-.497-2.852-2.163-2.852-1.648 0-2.15 1.426-2.15 2.852 0 1.407.502 2.834 2.15 2.834Zm0-7.524c2.801 0 4.604 1.853 4.604 4.69 0 2.817-1.803 4.672-4.604 4.672-2.784 0-4.587-1.855-4.587-4.672 0-2.837 1.803-4.69 4.587-4.69ZM23.167 151.976h2.317v1.648h.036c.444-1.115 1.648-1.888 2.837-1.888.171 0 .375.033.533.084v2.268c-.228-.051-.586-.084-.877-.084-1.789 0-2.409 1.289-2.409 2.851v4.004h-2.437v-8.883M36.438 156.459c0-1.412-.568-2.869-2.13-2.869-1.598 0-2.112 1.426-2.112 2.869 0 1.442.549 2.817 2.13 2.817 1.599 0 2.112-1.375 2.112-2.817Zm-6.596-4.468h2.32v1.133h.034c.583-.943 1.545-1.372 2.643-1.372 2.786 0 4.037 2.249 4.037 4.774 0 2.372-1.302 4.588-3.898 4.588-1.065 0-2.077-.464-2.661-1.34h-.036V164h-2.439v-12.009ZM44.231 159.276c1.667 0 2.166-1.427 2.166-2.834 0-1.426-.499-2.852-2.166-2.852-1.647 0-2.147 1.426-2.147 2.852 0 1.407.5 2.834 2.147 2.834Zm0-7.524c2.802 0 4.608 1.853 4.608 4.69 0 2.817-1.806 4.672-4.608 4.672-2.781 0-4.585-1.855-4.585-4.672 0-2.837 1.804-4.69 4.585-4.69ZM50.344 151.976h2.319v1.648h.038c.443-1.115 1.646-1.888 2.832-1.888.17 0 .378.033.533.084v2.268c-.224-.051-.585-.084-.876-.084-1.787 0-2.406 1.289-2.406 2.851v4.004h-2.44v-8.883M62.42 156.526c-.415.363-1.272.376-2.029.516-.756.152-1.443.413-1.443 1.306 0 .911.705 1.132 1.497 1.132 1.904 0 1.975-1.509 1.975-2.043v-.911Zm-5.638-1.803c.139-2.286 2.182-2.971 4.175-2.971 1.769 0 3.902.394 3.902 2.523v4.623c0 .808.084 1.614.311 1.976h-2.477c-.083-.277-.156-.567-.174-.861-.771.809-1.903 1.101-2.986 1.101-1.685 0-3.024-.841-3.024-2.665 0-2.007 1.515-2.488 3.024-2.695 1.495-.225 2.887-.172 2.887-1.17 0-1.046-.725-1.201-1.582-1.201-.928 0-1.528.377-1.616 1.34h-2.44ZM69.786 151.991h1.788v1.632h-1.788v4.396c0 .827.207 1.033 1.03 1.033.259 0 .5-.018.758-.067v1.907c-.415.068-.949.085-1.429.085-1.49 0-2.797-.346-2.797-2.115v-5.239h-1.48v-1.632h1.48v-2.664h2.438v2.664M73.413 160.874h2.44v-8.883h-2.44v8.883Zm0-10.258h2.44v-2.01h-2.44v2.01ZM82.077 159.276c1.669 0 2.166-1.427 2.166-2.834 0-1.426-.497-2.852-2.166-2.852-1.649 0-2.148 1.426-2.148 2.852 0 1.407.499 2.834 2.148 2.834Zm0-7.524c2.801 0 4.609 1.853 4.609 4.69 0 2.817-1.808 4.672-4.609 4.672-2.782 0-4.584-1.855-4.584-4.672 0-2.837 1.802-4.69 4.584-4.69ZM88.261 151.991h2.32v1.238h.051c.619-.997 1.684-1.477 2.716-1.477 2.594 0 3.245 1.459 3.245 3.658v5.464h-2.438v-5.017c0-1.46-.431-2.184-1.563-2.184-1.325 0-1.891.74-1.891 2.546v4.655h-2.44v-8.883" fill="#9cd1ae"/>
    </g>
  </svg>
