<svg xmlns="http://www.w3.org/2000/svg" viewBox="0 0 467.4 54.6" xml:space="preserve">
	<path fill="#2BDE73" d="m17.1 18.9 9.6-14A8.3 8.3 0 0 1 33.8 1c2.4 0 4.4.8 6.1 2.5a8.3 8.3 0 0 1 1.2 10.6l-8.7 12.6L43 40.2a7 7 0 0 1 1.6 4.7c0 2.4-.8 4.4-2.5 6.1a8.3 8.3 0 0 1-6.1 2.6c-2.6 0-4.6-.8-6-2.5L17 34.9v9c0 2.6-.4 4.5-1.3 6a7.9 7.9 0 0 1-7.1 3.9c-2.8 0-5-.9-6.5-2.8A12 12 0 0 1 0 43.8V10.6c0-2.7.7-5 2.2-6.8A8 8 0 0 1 8.6 1c2.6 0 4.7 1 6.4 2.8 1 1 1.6 2.1 1.8 3.1.2.7.2 1.9.2 3.7v8.3zm47.8-7.3v32.1c0 2.8-.7 5.1-2.2 6.9-1.5 2-3.7 3-6.4 3a8 8 0 0 1-6.3-2.8c-1.4-1.5-2.2-3.9-2.2-7.1V11.6c0-3.6.7-6.2 2.2-7.8A8.1 8.1 0 0 1 56.4 1a8 8 0 0 1 6.3 2.7c1.5 1.7 2.2 4.3 2.2 7.9zM95.7 0c6.3 0 12.1 2.1 17.4 6.3 4.1 3.3 6.2 6.8 6.2 10.4 0 3-1.3 5.4-3.8 7.1-1.4 1-3 1.4-4.7 1.4-1.4 0-2.7-.3-4-1-.5-.3-1.8-1.6-3.9-3.8a9.5 9.5 0 0 0-7.3-3.2c-2.8 0-5.2 1-7.1 2.9-1.9 2-2.9 4.4-2.9 7.2s1 5.2 2.9 7.2 4.3 2.9 7.1 2.9c2.3 0 4.5-.8 6.5-2.4l3.7-3.6c1.3-1.1 3-1.7 5-1.7 2.3 0 4.3.8 6.1 2.4a7.9 7.9 0 0 1 2.6 5.9c0 3.2-1.9 6.4-5.6 9.6a27.7 27.7 0 0 1-41.4-5.9 26.4 26.4 0 0 1-4.2-14.5A27.1 27.1 0 0 1 95.7 0zm43.8 18.9 9.6-14a8.3 8.3 0 0 1 7.1-3.9c2.4 0 4.4.8 6.1 2.5a8.3 8.3 0 0 1 1.2 10.6l-8.7 12.6 10.6 13.5a7 7 0 0 1 1.6 4.7c0 2.4-.8 4.4-2.5 6.1a8.3 8.3 0 0 1-6.1 2.6c-2.6 0-4.6-.8-6-2.5l-13-16.2v9c0 2.6-.4 4.5-1.3 6a7.9 7.9 0 0 1-7.1 3.9c-2.8 0-5-.9-6.5-2.8a10.8 10.8 0 0 1-2.2-6.9V10.6c0-2.7.7-5 2.2-6.8A8.5 8.5 0 0 1 131 1c2.6 0 4.7.9 6.5 2.8 1 1 1.6 2.1 1.8 3.1.2.7.2 1.9.2 3.7v8.3zM177.7 33.6c1.9 0 3.9.8 6.1 2.5 2.7 2.1 4.5 3.1 5.5 3.1 1.5 0 2.2-.8 2.2-2.3 0-.8-.4-1.5-1.3-2.1a72 72 0 0 0-7.7-2.9c-7.6-2.7-11.4-7.6-11.4-14.9 0-5.5 2-9.8 6-12.9C180.7 1.4 185 0 190.2 0c4.5 0 8.4 1.1 11.7 3.2 3.3 2.1 5 4.9 5 8.3 0 2-.6 3.7-1.9 5.1a6.3 6.3 0 0 1-4.9 2c-2.1 0-4.4-1-7-3-1.6-1.2-2.8-1.9-3.6-1.9-1.4 0-2.1.7-2.1 2s1.7 2.5 5.2 3.5c4.8 1.5 8.4 3.3 11 5.5 3.5 2.9 5.2 6.9 5.2 12.1 0 5.7-1.9 10.1-5.8 13.3-3.6 3-8.3 4.4-14.1 4.4a22 22 0 0 1-14.4-4.6c-3-2.5-4.6-5.3-4.6-8.6 0-2.2.7-4 2.2-5.5a8.2 8.2 0 0 1 5.6-2.2zm45.7-16.3h-4.5c-2.5 0-4.6-.7-6.2-2a7.4 7.4 0 0 1-2.6-5.9c0-1.5.4-2.9 1.2-4.2a6.9 6.9 0 0 1 3.2-2.9c1.3-.6 4.4-.9 9.3-.9H241c4.2 0 7 .3 8.2.8 1.4.6 2.5 1.5 3.3 2.9a8.6 8.6 0 0 1 1.3 4.3c0 2.4-.9 4.4-2.8 6.1-1.3 1.2-3.5 1.9-6.6 1.9h-3.9v25.8c0 2.8-.5 5-1.4 6.5a7.8 7.8 0 0 1-7 3.9 8.3 8.3 0 0 1-7.1-3.5 12 12 0 0 1-1.6-6.7V17.3zm41.5 29.2c-.8 1.9-1.6 3.4-2.5 4.3a8 8 0 0 1-6.3 2.8 8 8 0 0 1-7-3.6 8.4 8.4 0 0 1-1.5-4.9c0-1.5.4-3 1.1-4.5l16.2-34.5a8 8 0 0 1 7.9-5c3.7 0 6.4 1.7 8 5.2L297.2 41c.7 1.4 1 2.8 1 4.1 0 2-.7 3.8-2 5.4a8 8 0 0 1-6.6 3.1 8 8 0 0 1-5.5-2c-1.1-1-2.2-2.7-3.3-5h-15.9zm71-13.3 4 6.5c1.1 1.8 1.7 3.6 1.7 5.5 0 2.4-.8 4.4-2.5 6a8.5 8.5 0 0 1-6.1 2.4 7.7 7.7 0 0 1-7-3.9L318.9 38v7c0 2.4-.8 4.4-2.4 6.1a7.9 7.9 0 0 1-6 2.5c-2.9 0-5.2-1-6.7-3.2-1.4-1.8-2-4.3-2-7.3V11.2c0-6.6 3.5-9.8 10.6-9.8h10.9c3.6 0 6.9 1 9.9 3.1 3.1 2.1 5.3 4.7 6.7 8 1.1 2.5 1.6 5 1.6 7.5 0 4.7-1.9 9.1-5.6 13.2zm20.3-15.9h-4.5c-2.5 0-4.6-.7-6.2-2a7.4 7.4 0 0 1-2.6-5.9c0-1.5.4-2.9 1.2-4.2a6.9 6.9 0 0 1 3.2-2.9c1.3-.6 4.4-.9 9.3-.9h17.2c4.2 0 7 .3 8.2.8 1.4.6 2.5 1.5 3.3 2.9a8.6 8.6 0 0 1 1.3 4.3c0 2.4-.9 4.4-2.8 6.1-1.3 1.2-3.5 1.9-6.6 1.9h-3.9v25.8c0 2.8-.5 5-1.4 6.5a7.8 7.8 0 0 1-7 3.9 8.3 8.3 0 0 1-7.1-3.5 12 12 0 0 1-1.6-6.7V17.3zm50.6 19.9h7.8c3.2 0 5.6.7 7.2 2a7.8 7.8 0 0 1 2.8 6.1c0 2.5-.9 4.6-2.8 6.1-1.4 1.2-3.8 1.8-7.1 1.8h-13.3c-3.1 0-5.3-.2-6.5-.7a7.3 7.3 0 0 1-4.5-4.6c-.5-1.4-.7-3.6-.7-6.7V13c0-2.4.1-3.9.2-4.7.3-1.6.9-3 2-4.2a8.7 8.7 0 0 1 4.6-2.5c.9-.2 2.7-.2 5.4-.2h10.2l4.9.1a9 9 0 0 1 4.5 1.6 7.3 7.3 0 0 1 3.1 6.1c0 2.7-.9 4.8-2.7 6.3a10.2 10.2 0 0 1-6.6 1.9h-8.4v3.5h6.7c2 0 3.6.5 4.9 1.6 1.4 1.1 2 2.6 2 4.6 0 4.1-2.5 6.2-7.5 6.2h-6.1v3.9zm54.9-4 4 6.5c1.1 1.8 1.7 3.6 1.7 5.5 0 2.4-.8 4.4-2.5 6a8.5 8.5 0 0 1-6.1 2.4 7.7 7.7 0 0 1-7-3.9L444.7 38v7c0 2.4-.8 4.4-2.4 6.1a7.9 7.9 0 0 1-6 2.5c-2.9 0-5.2-1-6.7-3.2-1.4-1.8-2-4.3-2-7.3V11.2c0-6.6 3.5-9.8 10.6-9.8h10.9c3.6 0 6.9 1 9.9 3.1 3.1 2.1 5.3 4.7 6.7 8 1.1 2.5 1.6 5 1.6 7.5 0 4.7-1.9 9.1-5.6 13.2z"/>
  </svg>
