<svg xmlns="http://www.w3.org/2000/svg" viewBox="0 0 66 20">
    <g fill="none" fill-rule="evenodd">
      <path fill="#CD171A" d="m55 1 5 9.5-5 9.5h3.9l7.1-9.5L58.9 1z"/>
      <g fill="#000">
        <path d="m0 17 2.3-.5V4.9L0 4.4V1.8L6.9 1l.5.2V3h.2a10 10 0 0 1 6-2c3 0 4.9 1.2 4.9 4.5v11l2 .5v2.5h-9.2V17l1.8-.4V7.3c0-1.8-.8-2.3-2.6-2.3-1 0-2 .3-2.9.6v11l1.8.4v2.5H.1V17ZM21.4 17l2.1-.5V4.9l-2.2-.5V1.8l6.9-.8.5.2v2.6h.2c1-1.5 2.5-2.8 4.6-2.8l1 .1v4.7l-1.6-.1c-1.7 0-3 .2-4 .8v10l2.7.5v2.5H21.4V17ZM35 10.5C35 3.8 39 1 45 1c2 0 4 .3 5.3.7V7h-3.4l-.5-2.6c-.4-.2-.8-.3-1.8-.3-2.5 0-4 1.7-4 6 0 4.7 2.2 6.2 5.4 6.2 2 0 3.6-.5 4.5-.8v2.8c-1.2.8-3.1 1.7-6.2 1.7-6.2 0-9.3-3.6-9.3-9.5"/>
      </g>
    </g>
  </svg>
