<svg xmlns="http://www.w3.org/2000/svg" viewBox="0 0 170 42"><g fill="none" fill-rule="evenodd"><g fill="#FFF"><path d="M39.06 8.47c-.62-1.12-1.63-1.41-2.8-.84-6.86 3.4-11.45 8.62-12.96 16.29-.12.57-.18 1.14-.27 1.73-1.38-.33-2.65-.72-3.94-.94-6.27-1.07-11.9.53-17 4.2-.48.35-.95.7-1.38 1.1-.79.72-.96 1.69-.32 2.55C3.68 36.99 7.87 40 13.5 40.7c4.28.53 8.15-.73 11.81-2.8 1.04-.58 1.35-1.72.82-2.64-.54-.93-1.62-1.25-2.68-.7a19.26 19.26 0 01-6.28 2.25c-4.71.68-9.49-1.35-12.38-5.05a17.8 17.8 0 016.33-2.99c3.93-.97 7.76-.69 11.48.97.85.39 1.49.96 1.98 1.8a83.76 83.76 0 013.2 5.91 1.93 1.93 0 103.35-1.93 80.62 80.62 0 00-3.62-6.56c-.8-1.27-.65-2.64-.44-3.94.92-5.8 4.15-10.01 9.13-12.97.07-.05.16-.05.33-.1a14.42 14.42 0 011.43 6.73c-.12 4.4-2.3 7.68-5.59 10.37-.4.34-1.25.94-1.65 1.29-.84.72-.99 1.76-.4 2.6.62.87 1.74 1.1 2.67.46 3.86-2.7 7.21-6.39 8.34-11.08 1.2-4.92.12-9.51-2.26-13.86"/><path d="M12.65 22.2c.74.67 1.68 1.2 2.61 1.6 1.01.43 2.06-.14 2.44-1.14.36-.94-.08-1.9-1.03-2.43a8.8 8.8 0 01-1.81-1.22A17.62 17.62 0 019.4 9.13a9.96 9.96 0 01.05-4.77c1.5.17 3.6 1.12 5.23 2.47 3.45 2.85 5.65 6.43 6.22 10.92a1.95 1.95 0 002.02 1.72c1-.07 1.77-.89 1.78-1.95 0-.43-.03-.88-.11-1.3-1.01-5.02-3.52-9.14-7.45-12.39A16.88 16.88 0 008.68.16c-1.65-.24-2.44.29-2.8 1.9-.22.98-.45 1.97-.5 2.96-.39 6.9 2.26 12.56 7.27 17.17"/></g><path d="M50.92 23.25a46.21 46.21 0 01.23-8.13c.13-1.14.42-2.22.9-3.24A9.26 9.26 0 0153.9 9.2a8.51 8.51 0 016.3-2.5c1.31 0 2.52.22 3.63.66a8.78 8.78 0 012.87 1.78c.8.76 1.43 1.67 1.88 2.74.45 1.07.68 2.24.68 3.52v.03c0 .2-.07.38-.22.53a.72.72 0 01-.55.24h-3.8a.73.73 0 01-.54-.24.74.74 0 01-.23-.53v-.04a3 3 0 00-.25-1.17 3.52 3.52 0 00-1.88-1.87c-.46-.2-.99-.3-1.6-.3-1.16 0-2.05.3-2.65.9-.6.6-.95 1.31-1.06 2.15a39.3 39.3 0 00-.3 5.36 51.1 51.1 0 00.3 5.36c.1.85.45 1.57 1.05 2.17.6.6 1.5.9 2.67.9 1.13 0 2.06-.28 2.77-.85a2.63 2.63 0 001.06-2.15v-1.65c0-.25-.13-.38-.39-.4h-2.57a.74.74 0 01-.53-.22.7.7 0 01-.23-.52v-3.63c0-.2.08-.37.23-.53a.73.73 0 01.53-.23h7.43c.2 0 .37.08.53.23.15.16.23.33.23.53v6.4a8.14 8.14 0 01-2.56 5.89 9.7 9.7 0 01-6.5 2.47c-1.32 0-2.5-.22-3.56-.67a8.4 8.4 0 01-2.74-1.83 9.38 9.38 0 01-1.86-2.7c-.47-1.01-.76-2.09-.89-3.23-.1-.78-.17-1.63-.23-2.55m22.28 9.79V15.5c0-.2.08-.38.23-.53a.72.72 0 01.54-.23h1.9c.14 0 .3.04.47.13.17.08.28.2.33.37l.36 1.05c.12.37.34.55.68.55.3 0 .58-.11.82-.33a6.42 6.42 0 012.35-1.45 6.55 6.55 0 012.26-.32h1.3c.2 0 .38.07.54.23.15.15.23.33.23.53v3.05c0 .2-.08.38-.23.53a.73.73 0 01-.54.23H83.1c-1.45 0-2.64.38-3.56 1.15-.92.76-1.39 1.92-1.39 3.47v9.1c0 .2-.07.37-.22.53a.72.72 0 01-.54.23h-3.42a.73.73 0 01-.53-.23.73.73 0 01-.24-.53m17.46-5.06c0 .71.25 1.23.74 1.55.5.32 1.09.48 1.77.48 1.1 0 2-.19 2.75-.57.73-.39 1.1-1.08 1.1-2.09v-.92c0-.25-.13-.38-.39-.4H92.6c-.41 0-.74.07-1 .22a1.78 1.78 0 00-.87 1.16c-.05.21-.07.4-.07.57m-4.65-.03a5.84 5.84 0 011.62-3.96 6.35 6.35 0 012.05-1.44 6.93 6.93 0 012.88-.56h3.89c.25 0 .38-.12.39-.37V21c0-.78-.28-1.37-.84-1.75a3.65 3.65 0 00-2.11-.58 5.11 5.11 0 00-1.5.26c-.27.1-.51.25-.72.44-.2.2-.34.44-.42.75-.07.34-.17.54-.3.62-.14.07-.38.1-.74.1h-2.75a.73.73 0 01-.53-.22.73.73 0 01-.23-.53c0-.76.17-1.48.5-2.17.35-.7.83-1.3 1.46-1.83.63-.54 1.4-.97 2.3-1.29a9.2 9.2 0 013.09-.48c2.3 0 4.15.59 5.54 1.77 1.4 1.19 2.09 2.9 2.09 5.13v11.82c0 .2-.08.37-.23.53a.72.72 0 01-.53.23h-1.9a.66.66 0 01-.52-.26 1.72 1.72 0 01-.29-.5c-.06-.17-.22-.26-.47-.26-.17 0-.37.07-.6.22a9 9 0 01-2.16 1c-.5.15-1.1.23-1.8.23-2.24 0-4-.55-5.27-1.65-1.27-1.1-1.9-2.64-1.9-4.64m20.15 5.1V15.5c0-.2.08-.38.22-.53a.72.72 0 01.54-.23h1.9c.29 0 .52.08.7.26.14.12.28.26.4.41.14.16.34.24.61.24.29 0 .56-.07.81-.2l.86-.46c.32-.17.67-.33 1.07-.47.4-.14.89-.21 1.47-.21a6.92 6.92 0 015.01 2.06 7.18 7.18 0 012.02 5.02v11.64c0 .2-.07.37-.23.53a.73.73 0 01-.53.23h-3.43a.72.72 0 01-.52-.23.73.73 0 01-.24-.53V21.37c0-.63-.24-1.16-.74-1.6-.5-.42-1.2-.63-2.1-.63-.9 0-1.6.2-2.1.6-.51.4-.77.9-.77 1.48v11.82c0 .2-.07.37-.22.53a.72.72 0 01-.54.23h-3.43a.73.73 0 01-.53-.23.73.73 0 01-.23-.53m24.21-10.31a21.08 21.08 0 00.13 4.4c.1.67.38 1.18.82 1.56.45.38 1.16.57 2.13.57s1.69-.2 2.15-.59c.46-.39.74-.9.84-1.53a30.65 30.65 0 000-5.73 2.45 2.45 0 00-.84-1.54c-.46-.39-1.18-.58-2.15-.58s-1.67.17-2.1.5c-.44.35-.72.89-.85 1.62-.05.38-.09.82-.13 1.32m-4.85 3.09a31.32 31.32 0 01.1-4.41c.13-1 .39-1.92.78-2.78a7.17 7.17 0 013.95-3.75 8.13 8.13 0 013.1-.56c1.17 0 2.22.18 3.15.56a7.31 7.31 0 013.99 3.75c.4.87.67 1.8.8 2.78a32.04 32.04 0 010 5.73 9.4 9.4 0 01-.78 2.78 7.19 7.19 0 01-4 3.75c-.91.37-1.95.56-3.12.56-1.16 0-2.2-.19-3.12-.56a7.17 7.17 0 01-3.97-3.75 9.46 9.46 0 01-.77-2.78c-.05-.39-.09-.83-.11-1.32m19.38 7.22V7.5c0-.2.08-.38.24-.53a.73.73 0 01.53-.24h3.42c.2 0 .38.08.53.23.16.15.24.33.24.54v25.53c0 .2-.08.37-.23.53a.72.72 0 01-.54.23h-3.42a.73.73 0 01-.53-.23.73.73 0 01-.23-.53m13.71-5.06c0 .71.25 1.23.74 1.55.5.32 1.09.48 1.77.48 1.1 0 2-.19 2.75-.57.73-.39 1.1-1.08 1.1-2.09v-.92c0-.25-.13-.38-.39-.4h-4.03c-.41 0-.74.07-1 .22a1.79 1.79 0 00-.87 1.16c-.05.21-.07.4-.07.57m-4.65-.03a5.85 5.85 0 011.62-3.96 6.35 6.35 0 012.05-1.44 6.94 6.94 0 012.88-.56h3.89c.25 0 .38-.12.39-.37V21c0-.78-.28-1.37-.84-1.75a3.65 3.65 0 00-2.11-.58 5.12 5.12 0 00-1.5.26c-.27.1-.51.25-.72.44-.2.2-.34.44-.42.75-.07.34-.17.54-.3.62-.14.07-.38.1-.74.1h-2.75a.74.74 0 01-.53-.22.73.73 0 01-.23-.53c0-.76.17-1.48.5-2.17.35-.7.83-1.3 1.46-1.83.63-.54 1.4-.97 2.3-1.29a9.2 9.2 0 013.09-.48c2.3 0 4.15.59 5.54 1.77 1.4 1.19 2.09 2.9 2.09 5.13v11.82c0 .2-.08.37-.23.53a.72.72 0 01-.53.23h-1.9a.66.66 0 01-.52-.26 1.72 1.72 0 01-.29-.5c-.06-.17-.22-.26-.47-.26-.17 0-.37.07-.6.22a9 9 0 01-2.16 1c-.5.15-1.1.23-1.8.23-2.24 0-4-.55-5.26-1.65-1.28-1.1-1.91-2.64-1.91-4.64" fill="#0047AF"/></g></svg>
