<svg xmlns="http://www.w3.org/2000/svg" viewBox="0 0 25 25"><path d="M12.5 2.5c-2.7 0-3.1 0-4.1.1-1.1 0-1.8.2-2.5.4-.6.3-1.2.6-1.7 1.2-.6.5-.9 1.1-1.2 1.7-.2.7-.4 1.4-.5 2.5 0 1.1-.1 1.4-.1 4.1s0 3.1.1 4.1c0 1.1.2 1.8.5 2.4.3.7.6 1.2 1.2 1.8.6.6 1.1.9 1.8 1.2.6.2 1.4.4 2.4.5 1.1 0 1.4.1 4.1.1 2.7 0 3.1 0 4.1-.1 1.1 0 1.8-.2 2.4-.5.7-.3 1.2-.6 1.8-1.2.6-.6.9-1.1 1.2-1.8.2-.6.4-1.4.5-2.4 0-1.1.1-1.4.1-4.1s0-3.1-.1-4.1c-.1-1.1-.2-1.8-.5-2.4-.3-.7-.6-1.2-1.2-1.8-.6-.6-1.1-.9-1.8-1.2-.6-.2-1.4-.4-2.4-.5h-4.1zm-.9 1.8h.9c2.7 0 3 0 4 .1 1 0 1.5.2 1.9.3.5.2.8.4 1.2.7.4.3.6.7.7 1.1.1.4.3.9.3 1.9 0 1.1.1 1.4.1 4s0 3-.1 4c0 1-.2 1.5-.3 1.9-.2.5-.4.8-.7 1.1-.4.4-.7.6-1.2.7-.4.1-.9.3-1.9.3-1.1 0-1.4.1-4 .1-2.7 0-3 0-4-.1-1 0-1.5-.2-1.9-.3-.5-.2-.8-.4-1.2-.7s-.6-.7-.7-1.1c-.1-.4-.3-.9-.3-1.9 0-1.1-.1-1.4-.1-4s0-3 .1-4c0-1 .2-1.5.3-1.9.2-.5.4-.8.7-1.2s.7-.6 1.2-.7c.4-.1.9-.3 1.9-.3h3.1zM17.8 6c-.7 0-1.2.5-1.2 1.2s.5 1.2 1.2 1.2S19 7.9 19 7.2 18.5 6 17.8 6zm-5.3 1.4c-2.8 0-5.1 2.3-5.1 5.1s2.3 5.1 5.1 5.1 5.1-2.3 5.1-5.1-2.3-5.1-5.1-5.1zm0 1.8c1.8 0 3.3 1.5 3.3 3.3 0 1.8-1.5 3.3-3.3 3.3-1.8 0-3.3-1.5-3.3-3.3 0-1.8 1.5-3.3 3.3-3.3z"/></svg>
