<svg xmlns="http://www.w3.org/2000/svg" viewBox="0 0 19 19"><path d="M9.5 0a9.5 9.5 0 010 19 9.42 9.42 0 01-5.22-1.57L.62 18.6l1.19-3.53A9.5 9.5 0 019.5 0zm5.53 13.42c.23-.65.23-1.2.16-1.32-.06-.12-.25-.19-.53-.33s-1.63-.8-1.9-.9c-.24-.1-.48-.06-.67.21-.27.37-.53.75-.74.98-.17.18-.45.2-.67.1-.31-.12-1.17-.42-2.23-1.36A8.43 8.43 0 016.9 8.88c-.16-.28-.02-.44.1-.6l.42-.45c.14-.16.22-.25.3-.44.1-.18.04-.37-.03-.51s-.63-1.5-.86-2.06c-.18-.44-.32-.45-.6-.46l-.32-.01c-.36 0-.74.1-.97.34-.28.28-.97.94-.97 2.3 0 1.37 1 2.69 1.13 2.87.14.19 1.94 3.02 4.73 4.18 2.18.9 2.83.82 3.33.72.72-.16 1.63-.7 1.86-1.34z"/></svg>
