<svg xml:space="preserve" viewBox="0 0 6511 4487" xmlns="http://www.w3.org/2000/svg">
  <path d="M48830 0H0v33653h48830V0" style="fill:#fff;fill-opacity:1;fill-rule:nonzero;stroke:none" transform="matrix(.13333 0 0 -.13333 0 4487)"/>
  <path d="M35372 22030c-2216 802-2763-4492-3404-5758-1229-2431-3563-3131-3809-5984 1181-924 3801-1048 5017-448 1384 684 1808 1913 2110 3509 332 1751 809 2935 1366 4477 586 1624 333 2957-698 4123" style="fill:#8f67a2;fill-opacity:1;fill-rule:nonzero;stroke:none" transform="matrix(.13333 0 0 -.13333 0 4487)"/>
  <path d="M36606 21415c-1027-497-1695-5665-2385-7016-465-908-1014-1787-1784-2543-765-750-1951-879-3094-2603 1008-391 3073 544 4072 615 229 113 130 150 478 223 1153 1883 2411 4199 3179 6223 779 2054 469 5267-578 5269" style="fill:#835c99;fill-opacity:1;fill-rule:nonzero;stroke:none" transform="matrix(.13333 0 0 -.13333 0 4487)"/>
  <path d="M36008 22507c-1423-96-1872-348-2391-1521 541 126 1381 508 1962 432 554-74 1157-747 1769-947 395 952-581 1093-753 1869-153 686 780 1694-256 2054-117-527-185-1077-263-1617" style="fill:#b4d068;fill-opacity:1;fill-rule:nonzero;stroke:none" transform="matrix(.13333 0 0 -.13333 0 4487)"/>
  <path d="M31389 5942c-279-14-317 1105-587 1148 367 2742 2150 4639 5676 9803 1471 2154 6691 1989 1929 38-2155-882-3361-4082-5143-5494-321-999-1182-1700-1588-2717-485-1216 85-2257-161-3155" style="fill:#dc8b56;fill-opacity:1;fill-rule:nonzero;stroke:none" transform="matrix(.13333 0 0 -.13333 0 4487)"/>
  <path d="M31389 6898c710 2896 1981 5813 3644 8279 717 1064 3684 3742 5367 3196 1173-381 1913-2572 1652-3916-660-3179-3930-5627-5159-6839-877-864-5504-3971-5504-720" style="fill:#f79f63;fill-opacity:1;fill-rule:nonzero;stroke:none" transform="matrix(.13333 0 0 -.13333 0 4487)"/>
  <path d="M31209 6373c-374 2755 2489 6621 3962 8853 2178 3300 5832 5299 5636 327-753-328-2352 229-2785 742-334-316-376-366-315-900 997-502 1649-1695 912-2677-1311-272-1458 1132-2679 1084-58-1026 807-1669 1323-2499-381-1957-1899-557-2901-379 1585-2452-453-4032-2565-5125" style="fill:#fab98c;fill-opacity:1;fill-rule:nonzero;stroke:none" transform="matrix(.13333 0 0 -.13333 0 4487)"/>
  <path d="M40596 17226c567 2022 5092 2868 4666 789-1882 591-2488-869-5058-981" style="fill:#b4d068;fill-opacity:1;fill-rule:nonzero;stroke:none" transform="matrix(.13333 0 0 -.13333 0 4487)"/>
  <path d="M40249 17350c660 1510-110 2697-901 4019 2546 2703 2911-6615 418-4285" style="fill:#b4d068;fill-opacity:1;fill-rule:nonzero;stroke:none" transform="matrix(.13333 0 0 -.13333 0 4487)"/>
  <path d="M40008 17417c-190 1987 1204 3459 2704 4359 1332-358 616-331 822-726-2202-1314-1812-4509-3526-4207" style="fill:#abbe66;fill-opacity:1;fill-rule:nonzero;stroke:none" transform="matrix(.13333 0 0 -.13333 0 4487)"/>
  <path d="M14075 8036c-43-204-828 63-909-120-1835 985-3851 1035-5847 5461-1380 3060-240 6719 468 2583 304-1776 2192-3485 2831-5134 632-493 954-1295 1583-1853 752-669 1584-533 2160-946" style="fill:#dc8b56;fill-opacity:1;fill-rule:nonzero;stroke:none" transform="matrix(.13333 0 0 -.13333 0 4487)"/>
  <path d="M13411 8287c-1875 1271-4194 3644-5588 5486-602 794-1358 2932-656 3996 490 741 1410 909 2293 369 2478-981 4571-5300 5177-6500 432-856 1032-4206-1226-3351" style="fill:#fab98c;fill-opacity:1;fill-rule:nonzero;stroke:none" transform="matrix(.13333 0 0 -.13333 0 4487)"/>
  <path d="M13943 8086c-1985 456-4802 3353-5888 5136-1500 2463-2066 5612 1350 4163 84-626-609-1627-1048-1802 155-323 182-366 564-463 540 582 1494 736 2034-51-62-1011-1066-748-1266-1636 702-311 1314 140 1989 292 1286-788 23-1509-292-2180 2007 491 2714-1387 3068-3188" style="fill:#f79f63;fill-opacity:1;fill-rule:nonzero;stroke:none" transform="matrix(.13333 0 0 -.13333 0 4487)"/>
  <path d="M8002 17607c-1296 939-1017 4407 346 3555-771-1194 126-2014-288-3886" style="fill:#b4d068;fill-opacity:1;fill-rule:nonzero;stroke:none" transform="matrix(.13333 0 0 -.13333 0 4487)"/>
  <path d="M7850 17391c-923 871-1895 631-2965 411-1389 2537 5152 348 3056-827" style="fill:#b4d068;fill-opacity:1;fill-rule:nonzero;stroke:none" transform="matrix(.13333 0 0 -.13333 0 4487)"/>
  <path d="M7757 17236c-1417 387-1597 1688-2676 3055 504 862 514 386 827 430 148-1494 2785-2486 2247-3636" style="fill:#abbe66;fill-opacity:1;fill-rule:nonzero;stroke:none" transform="matrix(.13333 0 0 -.13333 0 4487)"/>
  <path d="M12538 12014c1448 1013-323 4436-597 5813-257 1294-105 4438 1534 4709 2185 360 2891-2117 2770-4289-113-2031 84-3545-1323-5096-754-832-1441-1626-2561-1503" style="fill:#e24952;fill-opacity:1;fill-rule:nonzero;stroke:none" transform="matrix(.13333 0 0 -.13333 0 4487)"/>
  <path d="M13383 22888c383-1752 1176-3870 1056-5770-110-1753-28-2813-144-4269 1420 1465 2477 2040 2922 3948 520 2233-1146 5796-2730 5809" style="fill:#d2404e;fill-opacity:1;fill-rule:nonzero;stroke:none" transform="matrix(.13333 0 0 -.13333 0 4487)"/>
  <path d="M13607 21874c-525-195-1432-695-1549-1210-202 526 733 1223 515 1821-296 815-1176 1244-1775 1862 860 803 1906-477 2313-1097 404-174-451 110 3-60 721-659 1771-122 2432-1003-391 364-1260 174-1754-309M15357 7915c-1810-544-2674 2747-3696 3552-1176 928-1344 1662-1168 3239 149 1338-285 3723 1025 4420 992 528 1898 336 2877-480 438-365 1110-447 1604-697 616-312 1110-284 1612-929 173-221 101-501 322-691 212-182 672-159 946-315 599-341 1195-1087 1432-1696 207-531 269-1265 138-1874-171-789-99-630-73-1429 15-449-341-1995-687-2252-206-153-917-1034-1714-354l-45-140c-860-100-2526-1114-2824 24-1080 162-1227 908-353 821" style="fill:#b4d068;fill-opacity:1;fill-rule:nonzero;stroke:none" transform="matrix(.13333 0 0 -.13333 0 4487)"/>
  <path d="M14806 9293c-1409-67-1313 1992-2034 2643-1276 1152-761 1710-695 3371 30 766-235 1083 720 1316 1096 266 945-426 1714-712 693-257 1353 396 2053-125 409-306 705-1101 1013-1484 523-652 451-936 390-1852-55-829 282-1443 181-2270-227-1857-1800-1436-3331-1326" style="fill:#a1c33a;fill-opacity:1;fill-rule:nonzero;stroke:none" transform="matrix(.13333 0 0 -.13333 0 4487)"/>
  <path d="M16611 9012c-599 387-782 1249-1041 1833-325 730-567 1274-1028 1936-985 1419-1046 3207-2022 4423 978-696 1169-1784 1605-2615 374-713 319-1007 880-1661 983-1147 1364-2527 1772-4020" style="fill:#fffdef;fill-opacity:1;fill-rule:nonzero;stroke:none" transform="matrix(.13333 0 0 -.13333 0 4487)"/>
  <path d="M14820 12861c122 1069 428 2252 531 3178-136-1314-141-2617-256-3961a2007 2007 0 0 0-275 783M15660 11639c-451 692 344 1327 572 1943 275 744 51 1504 169 2307 502-1606 219-3115-848-4413M16455 9203c-164 1095 613 1238 945 2073 368 923 317 493 152 2855 504-402 395-2164 205-2802-268-900-941-1711-1184-2661" style="fill:#fffdef;fill-opacity:1;fill-rule:nonzero;stroke:none" transform="matrix(.13333 0 0 -.13333 0 4487)"/>
  <path d="M14987 11972c-635 677-833 945-1345 1294-567 386-1364 189-1890 687 576-80 1464-118 1968-388 515-277 1035-856 1474-1195 5-132 1-284-31-417M15944 10999c-838-365-769 240-1283 637-428 331-1443 479-2026 499 1434-238 2075-1404 3294-1909 75 234 19 403-92 610M14193 14408c-894-37-1712 931-2327 1362 1107-362 1485-846 2252-1108-25-116 34-110 85-168" style="fill:#fffdef;fill-opacity:1;fill-rule:nonzero;stroke:none" transform="matrix(.13333 0 0 -.13333 0 4487)"/>
  <path d="M24204 14470c-802 1089 285 2478 968 3296 488 586 434 872 1249 1563 540 458 936 125 1528 576 563 429 628 1180 1436 1160 519-13 966-669 1408-439 882 460 1124 677 1589-270 299-609 17-1251 325-1827 337-631 865-881 793-1779-47-587-404-1152-458-1745-71-775-21-1093-531-1722-434-537-650-947-984-1606-349-690-829-1053-1510-1128-283-31-503 138-782 79-295-63-507-346-803-469-1271-526-2379 637-3301 1374-713 569-262 826-467 1582-113 414-360 1566-625 1924" style="fill:#9dc33b;fill-opacity:1;fill-rule:nonzero;stroke:none" transform="matrix(.13333 0 0 -.13333 0 4487)"/>
  <path d="M28027 10225c1321-210 1423 2614 2219 3281 1409 1181 1018 1860 1246 3745 105 869 412 1201-452 1556-991 406-969-391-1747-641-700-224-1211 578-1964 56-441-306-859-1176-1218-1581-608-686-590-1014-692-2055-92-943-519-1605-567-2550-109-2120 1453-1795 2921-1817" style="fill:#86a73e;fill-opacity:1;fill-rule:nonzero;stroke:none" transform="matrix(.13333 0 0 -.13333 0 4487)"/>
  <path d="M26103 10570c635 379 958 1336 1305 1972 435 794 759 1385 1310 2090 1180 1508 1232 3098 2368 4379-1048-693-1100-1479-1657-2376-479-770-478-1107-1123-1793-1131-1202-1732-2725-2378-4375" style="fill:#fffdef;fill-opacity:1;fill-rule:nonzero;stroke:none" transform="matrix(.13333 0 0 -.13333 0 4487)"/>
  <path d="M28469 14748c71 1221-13 2588 51 3644-99-1499-323-2972-447-4502 179 256 309 539 396 858M26284 10770c47 413-365 1459-533 2434-187 1079-214 588 354 3243-547-406-751-2409-683-3148 97-1043 593-2025 657-3122" style="fill:#fffdef;fill-opacity:1;fill-rule:nonzero;stroke:none" transform="matrix(.13333 0 0 -.13333 0 4487)"/>
  <path d="M28156 13759c719 705 954 989 1499 1335 604 382 1324 82 1908 594-558-35-1406 8-1930-249-536-264-1128-868-1603-1210-28-148-51-321-44-474M27080 12752c730-493 367-350 923 50 462 332 1853 950 2408 916-1399-132-2209-1387-3451-1842-31 272 53 458 193 681M29332 16437c840-127 1783 888 2440 1317-1110-303-1553-814-2324-1036 3-135-52-122-110-183" style="fill:#fffdef;fill-opacity:1;fill-rule:nonzero;stroke:none" transform="matrix(.13333 0 0 -.13333 0 4487)"/>
  <path d="M25516 5703c72 1130 136 3010-221 4089-425 1285-776 1202 95 2322 364-582 1113-1457 1133-2195 3 746-3 1451 146 2161 195 54 522 54 717 0 11-433 9-892 41-1324 757 707 1057 1922 2233 1073-4-12-13-306-10-324-2143-1177-2513-3834-2642-6029-779-133-1491-438-1240 596" style="fill:#acd15f;fill-opacity:1;fill-rule:nonzero;stroke:none" transform="matrix(.13333 0 0 -.13333 0 4487)"/>
  <path d="M27185 10647c-1549-1140-3734-1144-4129 1107-168 960 123 1883 854 2493 1042 871 1103 529 1134 1934 22 1000 217 1494 1228 1876 476 180 1391-686 1921-646 265 20-630 123-25 518 138 90 443 635 655 712 1934 704 3509 621 4031-1845 78-371-2-835 19-1211 1416 156 2671-1099 2500-2479-170-1379-1687-1817-3004-1740 314-1469-1742-1731-2629-1177-580 362-2109 2386-2303 335" style="fill:#90ae3d;fill-opacity:1;fill-rule:nonzero;stroke:none" transform="matrix(.13333 0 0 -.13333 0 4487)"/>
  <path d="M30591 12711c708 900 2261 692 2519-370 227-938-269-2507-1229-2858-2557-935-4476 3584-1939 3369-296 1463 1876 1141 2055-121 164 15 166-52 231-143" style="fill:#97ba3d;fill-opacity:1;fill-rule:nonzero;stroke:none" transform="matrix(.13333 0 0 -.13333 0 4487)"/>
  <path d="M28699 15955c-1706 492-2515 670-2585-1461-1089 237-1895-934-1635-1951 323-1257 1656-1039 2690-913 35-1716 3168-1356 2714 1035-277 117-368 321-562 437 2197 281 1331 4147-1375 3001" style="fill:#b4d068;fill-opacity:1;fill-rule:nonzero;stroke:none" transform="matrix(.13333 0 0 -.13333 0 4487)"/>
  <path d="M28161 12837c-744-140-1792-558-1530 719-671-147-2099 58-1124 846-2064 891 1850 3329 1665 1159 1163-21 2365 408 2227-1227-944-447 965-2555-1597-2094-32 123 4 231-19 351" style="fill:#97ba3d;fill-opacity:1;fill-rule:nonzero;stroke:none" transform="matrix(.13333 0 0 -.13333 0 4487)"/>
  <path d="M17093 12781c-1646 928 127 3832-1 5127-147 1490 266 2120 1524 3087 1068 820 2486 2786 3897 2325 1067-349 1558-1135 1648-2406 41-569 447-1110 610-1640 202-660 564-996 448-1806-40-277-292-419-276-710 16-279 352-595 429-900 170-668 45-1615-229-2209-239-517-725-1070-1255-1398-687-424-523-365-1081-938-313-322-1674-1137-2100-1066-252 43-1379-56-1442 990l-133-64c-668 550-2553 1048-1940 2052-632 890-196 1513 348 823" style="fill:#b4d068;fill-opacity:1;fill-rule:nonzero;stroke:none" transform="matrix(.13333 0 0 -.13333 0 4487)"/>
  <path d="M17704 14134c-1024 968 526 2327 496 3298-54 1719 705 1733 1948 2838 573 509 617 920 1447 392 952-604 348-976 675-1728 295-677 1224-701 1333-1566 64-507-304-1271-367-1759-107-829-362-974-1064-1565-636-535-845-1204-1511-1704-1496-1124-2283 302-3264 1481" style="fill:#a1c33a;fill-opacity:1;fill-rule:nonzero;stroke:none" transform="matrix(.13333 0 0 -.13333 0 4487)"/>
  <path d="M18754 12638c-137 700 358 1429 599 2022 301 740 525 1291 683 2082 339 1693 1586 2977 1785 4524 177-1189-475-2080-771-2970-255-764-505-928-587-1786-145-1504-876-2734-1670-4064" style="fill:#fffdef;fill-opacity:1;fill-rule:nonzero;stroke:none" transform="matrix(.13333 0 0 -.13333 0 4487)"/>
  <path d="M20286 16597c856 653 1921 1253 2659 1820-1042-812-1984-1712-3033-2560 71 270 196 514 374 740M19988 15144c186 805 1195 672 1796 935 728 318 1120 1007 1780 1478-809-1475-2092-2318-3767-2448M18783 12883c676 877 1318 416 2149 755 921 376 576 114 2163 1871 61-642-1286-1785-1877-2090-834-431-1885-508-2739-992" style="fill:#fffdef;fill-opacity:1;fill-rule:nonzero;stroke:none" transform="matrix(.13333 0 0 -.13333 0 4487)"/>
  <path d="M19761 15860c48 927 104 1257 1 1867-115 676-810 1115-815 1838 341-470 930-1137 1084-1687 158-563 101-1339 160-1890-91-95-204-199-322-267M19724 14496c-844 351-360 720-431 1367-58 537-655 1372-1045 1805 822-1198 427-2468 907-3697 222 108 305 266 377 489M20966 18121c-646 619-516 1880-631 2622 507-1049 420-1657 763-2391-101-64-56-102-63-178" style="fill:#fffdef;fill-opacity:1;fill-rule:nonzero;stroke:none" transform="matrix(.13333 0 0 -.13333 0 4487)"/>
  <path d="M21680 16996c-561 1374 738 3273 2557 3548 577-1917-889-2493-2383-3790" style="fill:#6eba1e;fill-opacity:1;fill-rule:nonzero;stroke:none" transform="matrix(.13333 0 0 -.13333 0 4487)"/>
  <path d="M22506 17204c-1761-97-4146 495-4660-1974-410-1974 1411-3849 2610-5090 947-980 1197-1064 2532-925 746 78 1976-37 2650 485 1413 1093 1873 3991 1760 5489-92 1217-737 2039-1972 2530-1545 613-2691-10-3810-848" style="fill:#e24952;fill-opacity:1;fill-rule:nonzero;stroke:none" transform="matrix(.13333 0 0 -.13333 0 4487)"/>
  <path d="M6982 11758c0-3099 3301-6643 11013-6959 3387-138 5967-89 9387-164 3144-68 7273 108 9589 1056 4108 1683 4597 4166 5021 6009-1059 0-2305 30-4801-10-5952-96-6686-48-11132-48-3633 0-8614 168-12272 78-2030-50-3418-20-6805-20" style="fill:#fde397;fill-opacity:1;fill-rule:nonzero;stroke:none" transform="matrix(.13333 0 0 -.13333 0 4487)"/>
</svg>
