<svg xmlns="http://www.w3.org/2000/svg" viewBox="0 0 20 20"><path d="M18.7 5c-.9-1.5-2.1-2.8-3.6-3.6C13.5.4 11.8 0 10 0 8.2 0 6.5.5 5 1.3 3.5 2.2 2.2 3.5 1.3 5 .4 6.5 0 8.2 0 10c0 4 2.3 7.6 6 9.2 0-.8 0-1.5.2-2.3l1.3-5.4c-.2-.5-.3-1-.3-1.6 0-.7.2-1.4.6-1.8.4-.5.8-.7 1.4-.7.4 0 .8.1 1 .4.2.3.4.7.4 1.1 0 .3-.1.6-.1 1-.1.4-.2.8-.4 1.3s-.3.9-.3 1.2c-.1.5 0 1 .3 1.4.3.4.7.6 1.3.6.9 0 1.7-.5 2.3-1.6.6-1 .9-2.3.9-3.8 0-1-.4-2-1.1-2.8-.8-.8-2-1.1-3.1-1.1C7.5 4.9 5.3 7 5.2 9.6v.3c0 .8.2 1.4.7 2 .1.1.2.3.1.5 0 .1-.1.3-.1.4-.1.2-.1.3-.1.4-.1.3-.2.4-.5.3-.7-.3-1.2-.8-1.5-1.4-.6-1.3-.7-2.8-.2-4.1.1-.7.4-1.3.8-1.8s.9-1 1.4-1.4c.6-.4 1.3-.8 2-1 .8-.3 1.7-.4 2.5-.4 1.2 0 2.3.3 3.3.8a5.66 5.66 0 013 4.9c0 1.3-.2 2.5-.7 3.5-.4 1-1.1 1.8-1.9 2.5-.8.6-1.8.9-2.8.9-.5 0-1-.1-1.5-.4-.4-.2-.7-.5-.9-.9-.2.9-.5 1.8-.7 2.8-.2.6-.5 1.3-1 2.1a10.63 10.63 0 007.9-.9c1.5-.9 2.8-2.1 3.6-3.6.9-1.5 1.4-3.3 1.3-5 .1-1.9-.3-3.6-1.2-5.1z"/></svg>
