<svg xmlns="http://www.w3.org/2000/svg" viewBox="0 0 914 590"><path d="M878 152c1 2 6 0 14-3l9-3c2-2 3-4 5-13 4-16 4-18 6-21 1-2 3-4 2-5 0 0-2 3-6 4h-8c-4 0-6 4-10 10l-8 18-3 7a1833 1833 0 0 0-25 24c4-6 4-9 4-12 0-4-2-6-5-12l-11-14-9-8c-8 1-10 53 0 62l-4 3c-8-9-22-19-37-20-10-1-15 2-16 3-8 5-12 14-10 17 2 2 8-3 20-3 8 0 15 3 19 5l16 10-6 8-1 1c-6-3-13-6-21-6-9-1-14 2-16 3-5 3-9 8-10 12l-2 1c-2-5-9-11-16-14-11-4-25-3-26 1v1a338 338 0 0 1 5-28c2 7 10 13 20 17 8 2 11 1 12 0 0 0 4-1 5-4 1-6-8-22-14-16-20 17-22 3-23 0l5-22h1c4 5 12 9 21 9 8 0 10-2 11-3 1 0 3-2 3-5 0-5-9-9-16-10s-14 1-18 4l5-17c5 2 12 2 19-1 6-3 7-5 7-6v-5c-2-4-10-4-15-2l-7 4 11-27-4-1-13 35-3-11c-5-8-15-15-18-13l-1 2c-3 7-1 16 4 24 5 7 8 8 9 8h5l-4 16c-1-4-4-8-8-11-7-6-19-9-21-6v2c0 7 5 15 13 21 6 5 10 5 10 5l4-1-4 19c-2-7-9-16-15-13-12 5-26-3-28 0l1 3c3 8 11 16 23 20 9 3 13 2 14 1l4-3-3 26c-2-6-9-12-15-14-12-6-27-4-29 0l1 3c3 8 12 16 24 21 9 3 13 1 14 1l5-4-1 12v9l-7-9c-3-4-6-1-7 2-3 0-5 0-7 2-13 12-28 6-28 9l1 3c6 7 17 13 30 13 11 1 14-2 15-3l2-2 2 2 1 20-2 1c-5 0-6-7-14-9-2-1-7-2-10 0l-3 2-3 1c-3 0-6 3-8 4l-6 8v5c0 1 1 3 6 5 2 1 10 3 19 0l8-4c7-3 10-5 11-8v-2h2l2 16h-7c-10 0-18 6-22 14l-27 54-2 11v137c0 14 11 25 24 25h62c14 0 25-11 25-25V392l-2-9-25-64c-3-8-10-13-18-15l8-9 11 4c10 2 14 0 15-1 1 0 5-3 5-6v-2c11 9 16 13 20 12 4-2 6-5 7-9l3 1c15 1 22 2 25-1 3-5 0-14-1-16-2-6-6-9-8-11s-10-10-22-11l-7 1-3-2-6-4a1819 1819 0 0 1 11-9c10 5 12 9 21 12 5 1 10 2 11 0 2-3-7-17-21-26l2-3 4 2c10 4 12 9 22 11 4 1 9 3 10 1 2-3-5-14-17-23l13-2c8 0 15 3 19 5 10 5 12 9 21 12 5 1 10 2 11 0 3-5-19-32-45-34h-5l-1-1c9 0 26-3 41 8 4 3 12 10 26 15 4 2 6 3 7 2 2-2-16-24-41-35-10-5-17-5-21-4l2-3a1831 1831 0 0 1 30-26ZM751 273c-11-3-25-1-28 3l-2-11c5 3 11 3 21 5l11 1 1 3v1l-3-2Zm-30-49v-3a318 318 0 0 1 2-11c3 8 11 15 23 19l5 2-1 3c-4-3-9-5-15-3l-3 6c-5 0-10 1-12 3v-2a308 308 0 0 1 1-14Zm-1 23 1 1h-1v-1Zm9 57-2-1-3-21c2 5 7 9 13 12l-8 10Zm47-54-14-3-4-5-3-3c3-1 8-3 15-3 6 0 12 2 16 4l-10 10Zm22-24-12-5h1c6 0 10 1 14 3l-3 2Z" fill="#ffcbd7"/><path d="m376 195 71-21 18 21s66 8 85 51 91 264 91 264l-95 15-132-107s-42-19-38-65c2-26-4-59-10-82-5-19 0-39 13-53l-3-23Z" fill="#f35178"/><path d="M4 578c-5-7-5-16-2-24l55-115c4-8 13-14 23-14h692c9 0 18 5 22 13l59 112c4 8 3 17-1 25-5 7-13 12-21 12l-806 3c-9 0-17-4-21-12Z" fill="#fff"/><path d="M4 578c-5-7-5-16-2-24l55-115c4-8 13-14 23-14h692c9 0 18 5 22 13l59 112c4 8 3 17-1 25-5 7-13 12-21 12l-806 3c-9 0-17-4-21-12Zm76-150c-9 0-17 5-20 12L5 556a22 22 0 0 0 20 31l806-3c8 0 15-4 19-11 4-6 4-14 0-21l-58-112c-4-8-12-12-20-12H80Z" fill="#3d5d66"/><path d="M160 237c-10-13-24-18-32-12-9 6-7 21 2 34 4 5 9 10 15 12l41 54 25-20-44-51c-1-6-3-12-7-17Z" fill="#7e5c64"/><path d="M386 200s51 22 51 46c-1 24-95 180-95 180s-40 26-54 11L161 304l31-37 112 99 82-166Z" fill="#f35178"/><path fill="#ffcbd7" d="m512 496 15 47-173 10 15-53 143-4zm-190-5 15 47-173 10 15-53 143-4zm426-32 15 47-173 10 15-53 143-4z"/><path d="m407 460-45-22h-1l-103 2-31-118h-1l-38-10-1 1 38 133 39 22h1l2 1 139-4c2-1 3-4 1-5Z" fill="#3d5d66"/><path d="M363 428c-16 0-29 9-28 19 0 10 13 18 29 17 6 0 13-1 18-4l68-3-2-31-66 5c-6-2-13-4-19-3Z" fill="#7e5c64"/><path d="M464 222s48-29 67-15 92 182 92 182-2 48-22 50l-183 27-12-47 116-34-58-163Z" fill="#f35178"/><ellipse cx="173.8" cy="502.3" rx="110.3" ry="32.3" fill="#3d5d66"/><path d="M284 500c0 13-48 20-109 20s-111-7-111-20 50-29 111-29 109 15 109 29Z" fill="#334c53"/><path d="m90 475-18 9s2 30 33 28c30-1 44-6 43-10s1-21-11-18l-30 5-17-14Z" fill="#f35178"/><path d="M148 498c-2 3-16 8-43 9-23 1-30-15-32-23h-1s2 30 33 28c30-1 44-6 43-10v-4Z" fill="#3d5d66"/><path d="m148 479-18 9s1 30 32 28c31-1 45-6 44-10-1-3 1-21-11-18l-30 6-17-15Z" fill="#f35178"/><path d="M206 502c-3 3-16 8-44 9-23 1-29-15-31-23h-1s1 30 32 28c31-1 45-6 44-10v-4Z" fill="#3d5d66"/><path d="m161 450-17 10s1 29 32 28 44-7 44-10 0-21-12-18l-29 5-18-15Z" fill="#f35178"/><path d="M219 474c-2 3-16 8-43 9-23 1-30-15-32-24v1s1 29 32 28 44-7 44-10l-1-4Z" fill="#3d5d66"/><path d="m220 469-17 10s1 29 32 28 44-7 44-10 0-21-12-18l-29 5-18-15Z" fill="#f35178"/><path d="M278 493c-2 3-15 7-43 9-23 1-30-15-32-24v1s1 29 32 28 44-7 44-10l-1-4Z" fill="#3d5d66"/><path d="m101 193-25 13s2 43 46 41 64-10 63-15 1-30-16-26l-43 8-25-21Z" fill="#f35178"/><path d="M185 226c-3 5-23 12-63 13-32 2-42-21-45-33h-1s2 43 46 41 64-10 63-15v-6Z" fill="#3d5d66"/><circle cx="388.1" cy="110.1" r="63.5" fill="#7e5c64"/><path d="m403 128-17-21-10-31s-65 24-51-10c14-35 59-48 92-28l15 12s-33-24-16-36 13-18 23-11c11 7 7 14 18 8s34-16 32-7c-3 8 24 27 17 37-8 11 2 30-15 27s-6 20-21 12c0 0 13 14 5 26-8 13-23 19-19 35 3 16-35 24-35 24l-3-48s-10-7-15 11Z" fill="#334c53"/></svg>