<svg viewBox="0 0 267 45" fill="none" xmlns="http://www.w3.org/2000/svg"><path d="M60.302 24.508V33h-5.6v-8.492L44.62 12.202h6.296l6.6 8.37 6.57-8.37h6.296l-10.08 12.306Zm17.93-12.306v11.716c0 .777.065 1.483.197 2.12.13.625.373 1.165.726 1.619.353.444.848.792 1.484 1.044.635.242 1.463.363 2.482.363a9.81 9.81 0 0 0 2.407-.317 16.724 16.724 0 0 0 2.512-.848 18.564 18.564 0 0 0 2.362-1.211 17.455 17.455 0 0 0 2.028-1.438V12.202h5.6V33h-5.6v-2.846c-.706.404-1.458.813-2.255 1.226-.797.404-1.645.772-2.543 1.105-.898.323-1.852.586-2.861.788-1.01.211-2.074.317-3.194.317-1.403 0-2.659-.171-3.769-.514-1.11-.333-2.049-.808-2.815-1.423a6.402 6.402 0 0 1-1.771-2.255c-.404-.889-.606-1.878-.606-2.967V12.202h5.616Zm47.84 19.375a30.33 30.33 0 0 1-2.195.817 23.01 23.01 0 0 1-2.286.621 20.46 20.46 0 0 1-2.497.409c-.868.09-1.802.136-2.801.136-2.119 0-4.072-.227-5.858-.681-1.776-.454-3.31-1.135-4.601-2.044a9.732 9.732 0 0 1-2.997-3.42c-.717-1.373-1.075-2.972-1.075-4.799 0-1.826.358-3.42 1.075-4.783a9.561 9.561 0 0 1 2.997-3.42c1.291-.92 2.825-1.605 4.601-2.06 1.786-.454 3.739-.68 5.858-.68.999 0 1.933.045 2.801.136.877.09 1.71.227 2.497.408a23.01 23.01 0 0 1 2.286.62 30.82 30.82 0 0 1 2.195.818v5.056a38.26 38.26 0 0 0-1.817-.923 14.997 14.997 0 0 0-2.104-.833 16.872 16.872 0 0 0-2.528-.605c-.918-.162-1.952-.243-3.103-.243-1.766 0-3.234.182-4.404.545-1.161.364-2.089.848-2.786 1.453-.696.606-1.185 1.302-1.468 2.09a7.046 7.046 0 0 0-.424 2.421c0 .555.061 1.105.182 1.65.121.535.323 1.045.605 1.529.283.474.651.913 1.105 1.317.454.404 1.02.752 1.696 1.044.676.293 1.463.525 2.361.697.908.161 1.953.242 3.133.242 1.151 0 2.185-.07 3.103-.212a18.264 18.264 0 0 0 2.528-.59 16.358 16.358 0 0 0 2.104-.818 38.11 38.11 0 0 0 1.817-.954v5.056ZM149.662 33c-.101-1.13-.373-2.12-.817-2.967a7.817 7.817 0 0 0-1.68-2.21 9.06 9.06 0 0 0-2.271-1.529 14.27 14.27 0 0 0-2.588-.953 16.483 16.483 0 0 0-2.664-.5c-.878-.1-1.696-.151-2.452-.151h-1.665V33h-5.616V12.202h5.616v8.023h1.15c.777 0 1.589-.06 2.437-.182a15.616 15.616 0 0 0 2.513-.575c.837-.263 1.64-.6 2.406-1.014a9.028 9.028 0 0 0 2.059-1.514 8.099 8.099 0 0 0 1.514-2.059c.403-.787.656-1.68.757-2.679h5.721c-.101 1.1-.323 2.094-.666 2.982a10.353 10.353 0 0 1-1.256 2.392 10.036 10.036 0 0 1-1.665 1.831c-.616.525-1.246.98-1.892 1.363-.646.373-1.292.686-1.938.938-.636.242-1.231.429-1.786.56.706.111 1.438.288 2.195.53a12.85 12.85 0 0 1 2.27.938c.747.384 1.459.858 2.135 1.423a10.505 10.505 0 0 1 1.846 1.983c.545.757.999 1.62 1.363 2.588.363.97.595 2.06.696 3.27h-5.722Zm7.44 0v-5.45h5.737V33h-5.737Zm32.067-1.423c-.726.303-1.458.575-2.194.817a23.01 23.01 0 0 1-2.286.621c-.787.182-1.62.318-2.498.409-.867.09-1.801.136-2.8.136-2.119 0-4.072-.227-5.858-.681-1.776-.454-3.31-1.135-4.601-2.044a9.732 9.732 0 0 1-2.997-3.42c-.717-1.373-1.075-2.972-1.075-4.799 0-1.826.358-3.42 1.075-4.783a9.561 9.561 0 0 1 2.997-3.42c1.291-.92 2.825-1.605 4.601-2.06 1.786-.454 3.739-.68 5.858-.68.999 0 1.933.045 2.8.136.878.09 1.711.227 2.498.408a23.01 23.01 0 0 1 2.286.62c.736.243 1.468.515 2.194.818v5.056c-.575-.313-1.18-.62-1.816-.923a14.997 14.997 0 0 0-2.104-.833 16.902 16.902 0 0 0-2.528-.605c-.918-.162-1.952-.243-3.103-.243-1.766 0-3.234.182-4.405.545-1.16.364-2.088.848-2.785 1.453-.696.606-1.185 1.302-1.468 2.09a7.022 7.022 0 0 0-.424 2.421c0 .555.061 1.105.182 1.65.121.535.323 1.045.605 1.529.283.474.651.913 1.105 1.317.454.404 1.019.752 1.696 1.044.676.293 1.463.525 2.361.697.908.161 1.953.242 3.133.242 1.151 0 2.185-.07 3.103-.212a18.298 18.298 0 0 0 2.528-.59 16.358 16.358 0 0 0 2.104-.818c.636-.313 1.241-.63 1.816-.954v5.056Zm30.751-8.96c0 1.785-.328 3.365-.984 4.737a9.241 9.241 0 0 1-2.815 3.42c-1.222.92-2.705 1.615-4.451 2.09-1.735.464-3.688.696-5.858.696-2.169 0-4.132-.232-5.888-.696-1.746-.474-3.234-1.17-4.465-2.09a9.324 9.324 0 0 1-2.846-3.42c-.666-1.372-.999-2.952-.999-4.738 0-1.786.333-3.36.999-4.722a9.291 9.291 0 0 1 2.846-3.436c1.231-.919 2.719-1.61 4.465-2.074 1.756-.475 3.719-.712 5.888-.712 2.17 0 4.123.237 5.858.712 1.746.464 3.229 1.155 4.451 2.073a9.21 9.21 0 0 1 2.815 3.437c.656 1.362.984 2.936.984 4.722Zm-5.676 0a7.38 7.38 0 0 0-.379-2.317c-.242-.777-.681-1.473-1.317-2.089-.625-.615-1.483-1.115-2.573-1.498-1.09-.384-2.477-.575-4.163-.575-1.13 0-2.124.09-2.982.272-.857.172-1.599.414-2.225.727a6.004 6.004 0 0 0-1.574 1.105 5.298 5.298 0 0 0-1.014 1.347 5.688 5.688 0 0 0-.545 1.498 7.924 7.924 0 0 0 0 3.088c.111.525.293 1.03.545 1.514.252.474.59.918 1.014 1.332.424.414.949.777 1.574 1.09.626.303 1.368.545 2.225.726.858.172 1.852.258 2.982.258 1.686 0 3.073-.192 4.163-.575 1.09-.384 1.948-.883 2.573-1.499.636-.616 1.075-1.307 1.317-2.074a7.52 7.52 0 0 0 .379-2.33Zm15.008-10.415v2.286a47.728 47.728 0 0 1 1.604-.969 15.716 15.716 0 0 1 1.892-.908 14.325 14.325 0 0 1 2.195-.666 11.297 11.297 0 0 1 2.543-.273c.888 0 1.665.096 2.331.288.666.182 1.241.424 1.726.726a5.49 5.49 0 0 1 1.256 1c.343.363.641.726.893 1.09a34.86 34.86 0 0 1 2.119-1.272 17.248 17.248 0 0 1 2.104-.984c.707-.272 1.428-.48 2.165-.62a11.402 11.402 0 0 1 2.301-.228c1.271 0 2.406.177 3.405.53 1.01.353 1.862.838 2.559 1.453a6.14 6.14 0 0 1 1.589 2.18c.373.827.56 1.715.56 2.664V33h-5.616V19.301c0-.555-.086-1.034-.257-1.438a2.643 2.643 0 0 0-1.711-1.544 4.046 4.046 0 0 0-1.226-.181c-2.018 0-4.319.908-6.902 2.724.03.172.05.374.061.606.02.232.03.464.03.696V33h-5.616V19.18c0-.555-.086-1.024-.257-1.407a2.45 2.45 0 0 0-.712-.954 2.598 2.598 0 0 0-1.029-.515 4.387 4.387 0 0 0-1.226-.166c-.525 0-1.08.075-1.665.227a10.79 10.79 0 0 0-1.756.636 14.29 14.29 0 0 0-1.741.968c-.565.374-1.105.777-1.619 1.211V33h-5.616V12.202h5.616Z" fill="#F35178"/><path fill-rule="evenodd" clip-rule="evenodd" d="M34.674 15.805C32.045 9.462 25.794 5 18.5 5 8.835 5 1 12.835 1 22.5S8.835 40 18.5 40c.634 0 1.26-.034 1.876-.1 2.432-7.575.285-11.467-1.913-15.452-2.492-4.518-5.05-9.155-1.063-19.414.364-.022.73-.034 1.1-.034 7.294 0 13.545 4.462 16.174 10.805Z" fill="#F35178"/><path fill-rule="evenodd" clip-rule="evenodd" d="M38 22.5C38 12.835 30.165 5 20.5 5c-.37 0-.737.012-1.1.034-3.987 10.26-1.43 14.896 1.063 19.414 2.198 3.985 4.345 7.878 1.913 15.453C31.159 38.965 38 31.53 38 22.5Z" fill="#7CB18E"/></svg>