<svg fill="none" xmlns="http://www.w3.org/2000/svg" viewBox="0 0 267 45"><path d="M60.3 24.5V33h-5.6v-8.5l-10-12.3h6.2l6.6 8.4 6.6-8.4h6.3L60.3 24.5Zm18-12.3v11.7l.1 2.1c.2.7.4 1.2.8 1.7.3.4.8.7 1.4 1a7 7 0 0 0 2.5.4 16.7 16.7 0 0 0 9.3-3.8V12.2H98V33h-5.6v-2.8a63.8 63.8 0 0 1-4.8 2.3 20.1 20.1 0 0 1-6 1c-1.4 0-2.7 0-3.8-.4-1.1-.4-2-.8-2.8-1.4a6.4 6.4 0 0 1-2.4-5.3V12.2h5.6ZM129.5 33V18.4L121.9 33h-5.4l-7.7-14.6V33h-5.6V12.2h7.6l8.4 15.7 8.4-15.7h7.6V33h-5.6Zm9 0v-5.4h5.7V33h-5.7Zm32-1.4a30.5 30.5 0 0 1-7 1.8 27 27 0 0 1-8.6-.5c-1.8-.5-3.3-1.2-4.6-2-1.3-1-2.3-2.1-3-3.5-.7-1.4-1-3-1-4.8 0-1.8.3-3.4 1-4.8a9.6 9.6 0 0 1 3-3.4c1.3-1 2.8-1.6 4.6-2a23.7 23.7 0 0 1 11.2-.2 23 23 0 0 1 4.5 1.5v5a38.3 38.3 0 0 0-4-1.7 16.9 16.9 0 0 0-5.6-.9c-1.8 0-3.2.2-4.4.6-1.2.3-2 .8-2.8 1.4a5 5 0 0 0-1.5 2 7 7 0 0 0 .4 5.7 5.6 5.6 0 0 0 2.8 2.4l2.4.7a18 18 0 0 0 6.2 0 18.3 18.3 0 0 0 6.5-2.4v5Zm30.8-9c0 1.8-.3 3.4-1 4.8a9.2 9.2 0 0 1-2.8 3.4 13 13 0 0 1-4.4 2 23 23 0 0 1-11.7 0c-1.8-.4-3.3-1.1-4.6-2-1.2-1-2.1-2-2.8-3.4-.7-1.4-1-3-1-4.8 0-1.8.3-3.3 1-4.7a9.3 9.3 0 0 1 2.8-3.4 13 13 0 0 1 4.5-2.1c1.8-.5 3.7-.7 5.9-.7s4.1.2 5.8.7c1.8.4 3.3 1.1 4.5 2 1.2 1 2.2 2.1 2.8 3.5.7 1.4 1 3 1 4.7Zm-5.7 0c0-.8-.1-1.5-.4-2.3a5 5 0 0 0-1.3-2 6.8 6.8 0 0 0-2.5-1.6c-1.1-.4-2.5-.6-4.2-.6-1.1 0-2.1.1-3 .3-.8.2-1.6.4-2.2.7a6 6 0 0 0-2.6 2.5c-.3.5-.4 1-.5 1.5a8 8 0 0 0 0 3c0 .6.2 1.1.5 1.6.2.5.6 1 1 1.3.4.4 1 .8 1.6 1.1.6.3 1.4.6 2.2.7a15.3 15.3 0 0 0 7.2-.3c1-.4 1.9-.9 2.5-1.5a5 5 0 0 0 1.3-2c.3-.8.4-1.6.4-2.4Zm15-10.4v2.3a47.7 47.7 0 0 1 3.5-1.9 14.3 14.3 0 0 1 4.8-1c.9 0 1.6.2 2.3.4a6.4 6.4 0 0 1 3.9 2.8 34.9 34.9 0 0 1 4.2-2.3 12.6 12.6 0 0 1 4.5-.8c1.2 0 2.4.1 3.4.5s1.8.8 2.5 1.5c.7.6 1.3 1.3 1.6 2.1.4.9.6 1.8.6 2.7V33h-5.6V19.3c0-.6-.1-1-.3-1.4a2.6 2.6 0 0 0-1.7-1.6 4 4 0 0 0-1.2-.2c-2 0-4.4 1-7 2.8l.1.6V33h-5.6V19.2c0-.6 0-1-.2-1.4l-.7-1-1-.5-1.3-.2-1.7.3a11 11 0 0 0-3.4 1.6c-.6.3-1.2.7-1.7 1.2V33H205V12.2h5.6Z" fill="#F35178"/><path fill-rule="evenodd" clip-rule="evenodd" d="M34.7 15.8A17.5 17.5 0 1 0 20.4 40c2.4-7.6.3-11.5-2-15.5-2.4-4.5-5-9.1-1-19.4h1.1C25.8 5 32 9.5 34.7 15.8Z" fill="#F35178"/><path fill-rule="evenodd" clip-rule="evenodd" d="M38 22.5A17.5 17.5 0 0 0 19.4 5c-4 10.3-1.4 15 1 19.4 2.3 4 4.4 8 2 15.5 8.8-1 15.6-8.4 15.6-17.4Z" fill="#7CB18E"/></svg>